<svg xmlns="http://www.w3.org/2000/svg" xmlns:xlink="http://www.w3.org/1999/xlink" xmlns:dc="http://purl.org/dc/elements/1.1/" xmlns:cc="http://creativecommons.org/ns#" xmlns:rdf="http://www.w3.org/1999/02/22-rdf-syntax-ns#" xmlns:svg="http://www.w3.org/2000/svg" xmlns:sodipodi="http://sodipodi.sourceforge.net/DTD/sodipodi-0.dtd" xmlns:inkscape="http://www.inkscape.org/namespaces/inkscape"><defs><path d="M640 0L581.7 665.92L319.61 740L58.24 666.03L0 0L640 0Z" id="aaSzfe5lo"/><path d="M640 0L581.7 665.92L319.61 740L58.24 666.03L0 0L640 0Z" id="c3cNfdsyhD"/><path d="M581.07 53.64L319.46 53.64L319.46 682.56L531.24 622.7L581.07 53.64Z" id="a1Mf99kVwx"/><path d="M581.07 53.64L319.46 53.64L319.46 682.56L531.24 622.7L581.07 53.64Z" id="a1YWsyTFCX"/><path d="M229.76 488.39L224.05 423.25L180.7 423.25L143.63 423.25L154.85 551.5L318.97 597.95L319.34 597.84L319.34 512.85L318.99 512.96L229.76 488.39Z" id="aY48dz90A"/><path d="M229.76 488.39L224.05 423.25L180.7 423.25L143.63 423.25L154.85 551.5L318.97 597.95L319.34 597.84L319.34 512.85L318.99 512.96L229.76 488.39Z" id="cItHQ9Qb8"/><path d="M231.47 300.67L243.04 172.48L330.35 170.11L330.13 85.16L170.6 85.16L164.68 145.38L145.85 360.43L143.89 382.36L165.48 382.36L330.13 382.36L330.13 300.67L231.47 300.67Z" id="a9vR5NMgY"/><path d="M231.47 300.67L243.04 172.48L330.35 170.11L330.13 85.16L170.6 85.16L164.68 145.38L145.85 360.43L143.89 382.36L165.48 382.36L330.13 382.36L330.13 300.67L231.47 300.67Z" id="b1c4mn5smM"/><path d="M417.45 175.48L424.87 259.83L468.23 259.83L505.3 259.83L491.29 102L329.96 85.12L329.59 85.23L329.59 170.22L329.94 170.12L417.45 175.48Z" id="aYBODXbQb"/><path d="M417.45 175.48L424.87 259.83L468.23 259.83L505.3 259.83L491.29 102L329.96 85.12L329.59 85.23L329.59 170.22L329.94 170.12L417.45 175.48Z" id="eePwPq880"/><path d="M497.04 170.47L490.18 85.16L321.05 85.16L321.05 138.14L321.05 170.26L321.05 170.47L497.04 170.47" id="a1ohUjaEzO"/><path d="M497.04 170.47L490.18 85.16L321.05 85.16L321.05 138.14L321.05 170.26L321.05 170.47L497.04 170.47" id="i2y0rh2ZhN"/><path d="M417.72 382.4L408.42 488.33L319.06 512.92L319.06 597.91L483.32 551.5L484.52 537.7L503.35 322.65L505.3 300.72L483.71 300.72L319.06 300.72L319.06 382.4L417.72 382.4Z" id="dGqbpXo2O"/><path d="M417.72 382.4L408.42 488.33L319.06 512.92L319.06 597.91L483.32 551.5L484.52 537.7L503.35 322.65L505.3 300.72L483.71 300.72L319.06 300.72L319.06 382.4L417.72 382.4Z" id="d9hBAfRPm"/></defs><symbol id="angular" viewBox="0 0 123.8 131.4">
<g>
	<polygon fill="#BA2731" points="117.4,26.5 60.7,6.7 60.7,124.7 108.5,98.8 	"/>
	<polygon fill="#E72734" points="6.3,26.5 60.7,6.7 60.7,124.7 15,99.3 	"/>
	<g>
		<polygon fill="#FFFFFF" points="50.3,66.2 60.7,41.3 60.7,14.8 24.2,96 36.8,96 45.4,77.2 60.7,77.2 60.7,66.2 		"/>
		<polygon fill="#B4B3B4" points="60.7,14.8 60.7,41.3 73.9,66.2 60.7,66.2 60.7,77.2 78.6,77.2 86.8,96 99.6,96 		"/>
		<g>
			<path fill="#B4B3B4" d="M60.7,0L0,22l9.7,81.1l50.9,28.3l53.3-28.9l9.9-80.6L60.7,0z M108.5,98.8l-47.8,25.9L15,99.3L6.3,26.5
				L60.7,6.7l56.7,19.7L108.5,98.8z"/>
		</g>
	</g>
</g>
</symbol><symbol id="bem" viewBox="0 0 256 220" preserveAspectRatio="xMinYMin meet"><path d="M146.335 187.82h108.833v31.347H146.335V187.82z" fill="#010101"/><path d="M130.075 187.82v-56.947H78.937v56.947h51.138" fill="#F7B334"/><path d="M108.047 62.171h-41.96L34.092 0H.262v187.82H79.2v-56.947h66.874V100.05c0-21.42-15.473-37.878-38.026-37.878zm12.587 50.94h-11.538l-13.113-2.874v-2.874h24.651v5.747z" fill="#010101"/></symbol><symbol id="bootstrap" viewBox="5.5 797.5 175 175"><g xmlns:inkscape="http://www.inkscape.org/namespaces/inkscape" xmlns:dc="http://purl.org/dc/elements/1.1/" xmlns:svg="http://www.w3.org/2000/svg" xmlns:sodipodi="http://sodipodi.sourceforge.net/DTD/sodipodi-0.dtd" xmlns:rdf="http://www.w3.org/1999/02/22-rdf-syntax-ns#" xmlns:cc="http://creativecommons.org/ns#"><linearGradient id="a" gradientUnits="userSpaceOnUse" x1="-64.999" y1="1381.5" x2="-64.999" y2="1206.5" gradientTransform="translate(158 -409)"><stop offset="0" stop-color="#3bb1dc"/><stop offset="1" stop-color="#60f0ff"/></linearGradient><path fill="url(#a)" d="M151.333 799.216c7.292 0 14.183 2.861 19.388 8.062 5.204 5.205 8.062 12.097 8.062 19.389v116.666c0 7.292-2.859 14.184-8.062 19.387-5.205 5.205-12.097 8.064-19.388 8.064H34.667c-7.292 0-14.183-2.859-19.387-8.064-5.205-5.203-8.064-12.095-8.064-19.387V826.667c0-7.292 2.859-14.184 8.064-19.389 5.205-5.201 12.096-8.062 19.387-8.062h116.666m0-1.716H34.667C18.625 797.5 5.5 810.625 5.5 826.667v116.666c0 16.042 13.125 29.167 29.167 29.167h116.666c16.042 0 29.167-13.125 29.167-29.167V826.667c0-16.042-13.125-29.167-29.167-29.167z"/><g><path fill="#3BB1DC" d="M53.053 835.533h49.612c9.149 0 16.499 2.085 22.019 6.289 5.52 4.203 8.293 10.521 8.293 19.015 0 5.147-1.258 9.552-3.773 13.212-2.518 3.659-6.119 6.521-10.811 8.521v.283c6.293 1.346 11.066 4.318 14.297 8.923 3.231 4.633 4.861 10.408 4.861 17.387 0 4.003-.715 7.75-2.145 11.209-1.43 3.487-3.661 6.493-6.721 9.006-3.06 2.517-6.947 4.521-11.724 6.006-4.774 1.488-10.438 2.231-17.013 2.231H53.053V835.533zm17.872 42.748h29.167c4.29 0 7.863-1.201 10.723-3.66 2.86-2.459 4.289-5.948 4.289-10.525 0-5.146-1.287-8.775-3.858-10.862-2.573-2.089-6.291-3.146-11.152-3.146H70.925v28.193zm0 44.752h31.597c5.435 0 9.666-1.404 12.642-4.234 3.001-2.802 4.519-6.806 4.519-11.953 0-5.061-1.488-8.921-4.519-11.667-3.031-2.744-7.207-4.06-12.642-4.06H70.925v31.914z"/></g></g></symbol><symbol id="css3" viewBox="0 0 105.3 119.4">
<g>
	<polygon fill="#0A71B9" points="0,0 105.3,0 95.9,107.6 52.6,119.4 9.4,107.6 	"/>
	<polygon fill="#28A7DE" points="52.6,8.9 96.5,8.9 88.1,100.6 52.6,110.8 	"/>
	<g>
		<polygon fill="#EBEBEB" points="79.8,22.2 19.7,22.2 21,35.3 71.2,35.3 69.6,48.5 22.2,48.5 23.4,61.4 68.9,61.4 67.2,79.2 
			52.4,82.8 37.9,79.2 37.1,68.6 24.1,68.6 26.1,89.9 53,97.2 79.8,89.9 86.1,22.2 		"/>
	</g>
	<g>
		<polygon fill="none" points="69.6,48.5 71.2,35.3 52.9,35.3 52.9,48.5 		"/>
		<polygon fill="none" points="67.2,79.2 68.9,61.4 52.9,61.4 52.9,82.6 		"/>
		<polygon fill="#FFFFFF" points="79.7,22.2 52.6,22.2 52.6,35.3 71.1,35.3 69.5,48.5 52.6,48.5 52.6,61.4 68.8,61.4 67.1,79.2 
			52.6,82.6 52.6,97.2 52.8,97.2 79.7,89.9 86.1,22.2 		"/>
	</g>
</g>
</symbol><symbol id="github" viewBox="0 0 291.32 291.32">
<g>
	<path style="fill:#2B414D;" d="M145.66,0C65.219,0,0,65.219,0,145.66c0,80.45,65.219,145.66,145.66,145.66
		s145.66-65.21,145.66-145.66C291.319,65.219,226.1,0,145.66,0z M186.462,256.625c-0.838-11.398-1.775-25.518-1.83-31.235
		c-0.364-4.388-0.838-15.549-11.434-22.677c42.068-3.523,62.087-26.774,63.526-57.499c1.202-17.497-5.754-32.883-18.107-45.3
		c0.628-13.282-0.401-29.023-1.256-35.941c-9.486-2.731-31.608,8.949-37.79,13.947c-13.037-5.062-44.945-6.837-64.336,0
		c-13.747-9.668-29.396-15.64-37.926-13.974c-7.875,17.452-2.813,33.948-1.275,35.914c-10.142,9.268-24.289,20.675-20.447,44.572
		c6.163,35.04,30.816,53.94,70.508,58.564c-8.466,1.73-9.896,8.048-10.606,10.788c-26.656,10.997-34.275-6.791-37.644-11.425
		c-11.188-13.847-21.23-9.832-21.849-9.614c-0.601,0.218-1.056,1.092-0.992,1.511c0.564,2.986,6.655,6.018,6.955,6.263
		c8.257,6.154,11.316,17.27,13.2,20.438c11.844,19.473,39.374,11.398,39.638,11.562c0.018,1.702-0.191,16.032-0.355,27.184
		C64.245,245.992,27.311,200.2,27.311,145.66c0-65.365,52.984-118.348,118.348-118.348S264.008,80.295,264.008,145.66
		C264.008,196.668,231.69,239.992,186.462,256.625z"/>
</g>
<g>
</g>
<g>
</g>
<g>
</g>
<g>
</g>
<g>
</g>
<g>
</g>
<g>
</g>
<g>
</g>
<g>
</g>
<g>
</g>
<g>
</g>
<g>
</g>
<g>
</g>
<g>
</g>
<g>
</g>
</symbol><symbol id="gulp" viewBox="0 0 256 566" preserveAspectRatio="xMinYMin meet"><path d="M197.28 548.749l5.427-90.43 14.985-25.58s-34.106 13.952-91.205 13.952c-57.1 0-90.689-13.694-90.689-13.694l16.794 27.904 5.941 87.848c0 9.418 31.059 17.052 69.374 17.052 38.313 0 69.373-7.634 69.373-17.052M180.161 126.454l11.391-45.025 63.081-66.376L238.007.892l-66.784 70.707-13.226 53.793a886.14 886.14 0 0 0-29.873-.497c-70.336 0-127.355 8.016-127.355 17.902 0 9.887 57.019 17.902 127.355 17.902 70.335 0 127.353-8.015 127.353-17.902 0-7.28-30.924-13.546-75.316-16.343" fill="#D34A47"/><path d="M173.535 151.669s-2.467.553-9.724.584c-7.259.03-12.413-.047-14.466-1.917-.552-.502-.854-1.499-.851-2.174.006-1.285.918-2.042 2.08-2.516l1.099 1.724c-.478.165-.751.36-.752.568-.004.976 7.422 1.644 13.102 1.572 5.681-.07 12.545-.538 12.551-1.5 0-.291-.519-.565-1.422-.781l1.094-1.712c1.472.457 2.757 1.34 2.754 2.868-.014 2.598-3.32 2.993-5.465 3.284" fill="#FFF"/><path d="M254.509 15.184c1.586-1.832-.821-6.518-5.376-10.465C244.576.774 239.596-.94 238.007.892c-1.587 1.832.821 6.518 5.378 10.463 4.555 3.946 9.537 5.662 11.124 3.829M194.246 327.865c-1.495-14.384 31.462-35.216 23.004-35.883-18.208 1.041-27.27 21.338-36.431 42.596-3.357 7.791-14.844 41.013-22.378 36.923-7.532-4.088 9.765-31.407 14.613-47.631-5.594 4.102-26.109 20.041-31.396 5.114-8.5 7.219-26.663 11.13-24.614-7.833-4.522 8.01-14.671 19.193-26.853 14.546-15.998-6.101 9.27-57.062 15.553-54.491 6.284 2.57-1.268 14.179-3.246 18.687-4.35 9.921-9.375 22.393-6.018 24.946 5.751 4.374 21.401-16.547 21.749-17.007 2.927-3.867 11.266-29.166 17.987-26.261 6.721 2.905-16.764 36.308-7.983 42.937 1.771 1.338 9.017-.825 13.425-5.594 2.852-3.085 1.871-9.918 11.378-32.59 9.507-22.671 17.98-50.905 24.5-48.754 6.52 2.15 1.146 16.641-1.193 22.043-10.976 25.354-29.956 67.241-21.005 64.07 8.951-3.17 13.612-3.356 22.377-13.613 8.765-10.257 8.361-27.152 14.203-26.793 5.844.36 4.863 5.777 3.446 9.902 5.75-6.58 27.256-20.438 32.448-6.713 6.15 16.249-30.769 39.72-21.564 38.523 8.975-1.167 23.515-10.376 29.723-18.749l17.088-153.626s-17.195 14.23-126.589 14.23c-109.395 0-124.811-13.934-124.811-13.934l14.548 140.224c7.722-21.947 26.059-66.339 54.963-64.849 13.148.678 30.7 25.995 15.665 26.853-6.364.362-7.01-12.637-14.546-14.546-5.438-1.378-13.009 3.043-17.902 7.833-9.758 9.55-30.745 47.229-27.972 66.014 3.533 23.949 33.048-8.322 38.042-17.903 3.517-6.749 5.893-26.745 13.585-24.647 7.693 2.098-.671 22.734-6.247 40.979-6.264 20.487-9.557 42.098-17.408 39.612-7.852-2.484 4.938-28.932 4.475-33.566-7.38 6.809-20.976 24.047-38.37 15.515l9.035 87.078s24.013 18.973 96.35 18.973c72.337 0 97.239-18.677 97.239-18.677l11.219-100.857c-9.179 8.938-38.229 24.81-40.089 6.919" fill="#D34A47"/></symbol><symbol id="html5" viewBox="0 0 105.9 120.1">
<g>
	<polygon fill="#E55025" points="0,0 105.9,0 96.5,108.2 52.9,120.1 9.4,108.2 	"/>
	<polygon fill="#F26722" points="96.8,9 53.3,9 53.3,111.2 88.4,101.2 	"/>
	<g>
		<polygon fill="#FFFFFF" points="34.4,35.5 85.4,35.5 86.6,22.3 80.2,22.3 19.9,22.3 23.6,61.7 69.5,61.7 67.8,79.6 52.8,83.3 
			38.3,79.6 37.4,69 24.3,69 26.3,90.4 53.4,97.8 80.2,90.4 84.1,48.8 36,48.8 		"/>
	</g>
	<g>
		<polygon fill="#E6E6E6" points="52.8,83.3 38.3,79.6 37.4,69 24.3,69 26.3,90.4 53.3,97.8 53.3,83.2 		"/>
		<polygon fill="#EBEBEB" points="36,48.8 34.4,35.5 53.3,35.5 53.3,22.3 19.9,22.3 23.6,61.7 53.3,61.7 53.3,48.8 		"/>
	</g>
</g>
</symbol><symbol id="javascript" viewBox="0 0 640 740" preserveAspectRatio="xMidYMid meet"><g><g><g><use xlink:href="#aaSzfe5lo" opacity="1" fill="#efc725" fill-opacity="1"/><g><use xlink:href="#aaSzfe5lo" opacity="1" fill-opacity="0" stroke="#000000" stroke-width="1" stroke-opacity="0"/></g></g><g><use xlink:href="#c3cNfdsyhD" opacity="1" fill="#000000" fill-opacity="0"/><g><use xlink:href="#c3cNfdsyhD" opacity="1" fill-opacity="0" stroke="#000000" stroke-width="1" stroke-opacity="0"/></g></g><g><use xlink:href="#a1Mf99kVwx" opacity="1" fill="#fbde34" fill-opacity="1"/><g><use xlink:href="#a1Mf99kVwx" opacity="1" fill-opacity="0" stroke="#000000" stroke-width="1" stroke-opacity="0"/></g></g><g><use xlink:href="#a1YWsyTFCX" opacity="1" fill="#000000" fill-opacity="0"/><g><use xlink:href="#a1YWsyTFCX" opacity="1" fill-opacity="0" stroke="#000000" stroke-width="1" stroke-opacity="0"/></g></g><g><use xlink:href="#aY48dz90A" opacity="1" fill="#ebebeb" fill-opacity="1"/><g><use xlink:href="#aY48dz90A" opacity="1" fill-opacity="0" stroke="#000000" stroke-width="1" stroke-opacity="0"/></g></g><g><use xlink:href="#cItHQ9Qb8" opacity="1" fill="#000000" fill-opacity="0"/><g><use xlink:href="#cItHQ9Qb8" opacity="1" fill-opacity="0" stroke="#000000" stroke-width="1" stroke-opacity="0"/></g></g><g><use xlink:href="#a9vR5NMgY" opacity="1" fill="#ebebeb" fill-opacity="1"/><g><use xlink:href="#a9vR5NMgY" opacity="1" fill-opacity="0" stroke="#000000" stroke-width="1" stroke-opacity="0"/></g></g><g><use xlink:href="#b1c4mn5smM" opacity="1" fill="#000000" fill-opacity="0"/><g><use xlink:href="#b1c4mn5smM" opacity="1" fill-opacity="0" stroke="#000000" stroke-width="1" stroke-opacity="0"/></g></g><g><use xlink:href="#aYBODXbQb" opacity="1" fill="#ffffff" fill-opacity="1"/><g><use xlink:href="#aYBODXbQb" opacity="1" fill-opacity="0" stroke="#000000" stroke-width="1" stroke-opacity="0"/></g></g><g><use xlink:href="#eePwPq880" opacity="1" fill="#000000" fill-opacity="0"/><g><use xlink:href="#eePwPq880" opacity="1" fill-opacity="0" stroke="#000000" stroke-width="1" stroke-opacity="0"/></g></g><g><use xlink:href="#a1ohUjaEzO" opacity="1" fill="#ffffff" fill-opacity="1"/><g><use xlink:href="#a1ohUjaEzO" opacity="1" fill-opacity="0" stroke="#000000" stroke-width="1" stroke-opacity="0"/></g></g><g><use xlink:href="#i2y0rh2ZhN" opacity="1" fill="#000000" fill-opacity="0"/><g><use xlink:href="#i2y0rh2ZhN" opacity="1" fill-opacity="0" stroke="#000000" stroke-width="1" stroke-opacity="0"/></g></g><g><use xlink:href="#dGqbpXo2O" opacity="1" fill="#ffffff" fill-opacity="1"/><g><use xlink:href="#dGqbpXo2O" opacity="1" fill-opacity="0" stroke="#000000" stroke-width="1" stroke-opacity="0"/></g></g><g><use xlink:href="#d9hBAfRPm" opacity="1" fill="#000000" fill-opacity="0"/><g><use xlink:href="#d9hBAfRPm" opacity="1" fill-opacity="0" stroke="#000000" stroke-width="1" stroke-opacity="0"/></g></g></g></g></symbol><symbol id="jQuery" viewBox="0 0 1194 536"><sodipodi:namedview pagecolor="#ffffff" bordercolor="#666666" borderopacity="1" objecttolerance="10" gridtolerance="10" guidetolerance="10" inkscape:pageopacity="0" inkscape:pageshadow="2" inkscape:window-width="1680" inkscape:window-height="1000" id="namedview4" showgrid="false" inkscape:zoom="0.34263606" inkscape:cx="1334.4852" inkscape:cy="92.233937" inkscape:window-x="-8" inkscape:window-y="-8" inkscape:window-maximized="1" inkscape:current-layer="svg2"/><g id="g12" inkscape:groupmode="layer" inkscape:label="Logo jQuery" transform="matrix(1.25,0,0,-1.25,225.50677,750.09016)"><path id="background" style="fill:#1e2e3b;fill-opacity:1;stroke:none" d="m -180.40542,600.07213 0,-429.35885 955.72392,0 0,429.35885 -955.72392,0 z"/><path style="fill:#21ace2;fill-opacity:1;fill-rule:nonzero;stroke:none" d="m -27.255416,472.14713 -4.2,-5.775 c -5.61384,-8.262 -6.14484,-18.52399 -2.25,-27.65 4.1052,-9.684 12.50276,-17.3 22.325,-20.9 0.405,-0.1524 0.81712,-0.28939 1.225,-0.425 l 0.55,-0.175 c 0.58272,-0.1812 1.15096,-0.386 1.75,-0.5 27.14976,-5.244 34.5166,13.9228 36.475,16.75 -6.4524,-9.2892 -17.29776,-11.5054 -30.6,-8.275 -1.04568,0.252 -2.1932,0.6186 -3.2,0.975 -1.30452,0.4668 -2.58192,1 -3.825,1.6 -2.3634,1.1328 -4.61164,2.5232 -6.7,4.1 -11.901,9.03 -19.3134,26.2446 -11.55,40.275 z m -30.8,-6.725 -7.775,-10.975 c -9.52452,-13.704 -9.00132,-32.05519 -1.575,-46.55 1.24644,-2.4312 2.63952,-4.7786 4.2,-7.025 1.42776,-2.0436 3.03404,-4.4846 4.925,-6.125 0.68952,-0.7572 1.3966,-1.4966 2.125,-2.225 l 0.575,-0.55 c 0.70872,-0.69 1.4268,-1.365 2.175,-2.025 l 0.07496,-0.075 0.02496,-0.025 c 0.82548,-0.7224 1.6824,-1.4136 2.55,-2.1 l 0.575,-0.45 c 0.87096,-0.6672 1.76564,-1.326 2.675,-1.95 l 0.07496,-0.075 c 0.3984,-0.2784 0.82048,-0.5348 1.225,-0.8 l 0.575,-0.375 c 0.65064,-0.4176 1.30804,-0.8124 1.975,-1.2 l 0.275,-0.175 c 0.5766,-0.33 1.1608,-0.6582 1.75,-0.975 l 0.625,-0.325 c 0.40788,-0.21 0.81388,-0.421 1.225,-0.625 l 0.175,-0.1 c 0.83808,-0.414 1.689,-0.797 2.55,-1.175 l 0.575,-0.225 c 0.69276,-0.2916 1.3724,-0.5848 2.075,-0.85 0.29772,-0.1128 0.59856,-0.2182 0.9,-0.325 0.6342,-0.2364 1.28096,-0.4578 1.925,-0.675 0.2916,-0.0936 0.58724,-0.1838 0.875,-0.275 0.91644,-0.2844 1.82352,-0.6416 2.775,-0.8 49.17096,-8.14572 60.52512,29.69988 60.52512,29.69988 -10.2336,-14.7408 -30.05564,-21.7662 -51.2,-16.275 -0.94212,0.246 -1.8808,0.5084 -2.8,0.8 l -0.825,0.275 c -0.65388,0.2124 -1.30272,0.4422 -1.95,0.675 -0.29484,0.1104 -0.5834,0.2122 -0.875,0.325 -0.70548,0.2688 -1.41048,0.556 -2.1,0.85 l -0.575,0.225 c -0.86112,0.3816 -1.7082,0.7824 -2.55,1.2 -0.43356,0.21 -0.87256,0.4328 -1.3,0.65 l -0.725,0.375 c -0.5508,0.2988 -1.11276,0.6106 -1.65,0.925 l -0.375,0.225 c -0.66708,0.3924 -1.32724,0.7848 -1.975,1.2 l -0.6,0.4 c -0.42756,0.2784 -0.85728,0.5644 -1.275,0.85 -0.90936,0.6252 -1.7824,1.2888 -2.65,1.95 l -0.6,0.45 c -9.2592,7.3044 -16.60692,17.3006 -20.1,28.625 -3.65532,11.7456 -2.86112,24.9246 3.475,35.625 z m -38.375,-13.875 -10.275004,-13.05 c -13.17,-18.9264 -11.53387,-43.5594 -1.475,-63.675 0.23952,-0.4788 0.50064,-0.9522 0.75,-1.425 0.15852,-0.3048 0.28824,-0.606 0.45,-0.9 l 0.3,-0.525 c 0.17148,-0.3204 0.35016,-0.6142 0.525,-0.925 0.31728,-0.5532 0.64788,-1.1028 0.975,-1.65 0.18144,-0.3012 0.34068,-0.5988 0.525,-0.9 0.366,-0.5856 0.74628,-1.1704 1.125,-1.75 l 0.475,-0.725 c 0.52776,-0.78359 1.07468,-1.5546 1.625,-2.325 l 0.025,-0.075 0.275,-0.375 c 0.47916,-0.6612 0.97664,-1.3068 1.475004,-1.95 l 0.55,-0.7 c 0.44664,-0.5604 0.91516,-1.1182 1.375,-1.675 l 0.5,-0.625 c 0.6216,-0.7284 1.25596,-1.4408 1.9,-2.15 l 0.05,-0.05 0.07496,-0.075 c 0.62808,-0.6864 1.27436,-1.3542 1.925,-2.025 l 0.6,-0.625 c 0.5082,-0.5076 1.03196,-1.002 1.55,-1.5 l 0.62504,-0.60008 c 0.69336,-0.6504 1.3842,-1.301 2.1,-1.925 l 0.05,-0.025 0.35,-0.325 c 0.6282,-0.5436 1.2776,-1.0696 1.925,-1.6 l 0.775,-0.625 c 0.52452,-0.4212 1.05952,-0.842 1.6,-1.25 l 0.85,-0.65004 c 0.59256,-0.4368 1.19772,-0.8824 1.8,-1.3 l 0.65,-0.45 0.175,-0.125 c 0.57324,-0.3912 1.1674,-0.7708 1.75,-1.15 l 0.75,-0.5 c 0.89664,-0.5664 1.80532,-1.1338 2.725,-1.675 l 0.75,-0.425 c 0.6768,-0.3888 1.33884,-0.778 2.025,-1.15 0.37224,-0.2016 0.77452,-0.3806 1.15,-0.575 0.48564,-0.2556 0.955,-0.5004 1.45,-0.75 l 0.35,-0.175 0.575,-0.275 c 0.76692,-0.366 1.54452,-0.7282 2.325,-1.075 l 0.5,-0.225 c 0.89016,-0.3924 1.79016,-0.7662 2.7,-1.125 l 0.65,-0.25 c 0.84468,-0.324 1.69548,-0.6512 2.55,-0.95 l 0.325,-0.125 c 0.94224,-0.3264 1.89468,-0.6274 2.85,-0.925 l 0.675,-0.2 c 0.97128,-0.2952 1.9242,-0.6402 2.925,-0.825 63.6876,-11.616 82.2,38.275 82.2,38.275 -15.5328,-20.244 -43.11676,-25.5948 -69.25,-19.65 -0.99048,0.2232 -1.95984,0.543 -2.925,0.825 l -0.725,0.225 c -0.94224,0.288 -1.87048,0.5784 -2.8,0.9 l -0.375,0.15 c -0.83196,0.2904 -1.65936,0.607 -2.475,0.925 l -0.7,0.275 c -0.9,0.3564 -1.7942,0.7148 -2.675,1.1 l -0.55,0.225 c -0.75756,0.3432 -1.49904,0.6912 -2.25,1.05 l -0.65,0.325 c -0.58596,0.282 -1.1484,0.5738 -1.725,0.875 -0.39132,0.2004 -0.78968,0.415 -1.175,0.625 -0.70596,0.3828 -1.40724,0.773 -2.1,1.175 l -0.7,0.375 c -0.92292,0.54 -1.82836,1.1074 -2.725,1.675 l -0.725,0.5 c -0.65064,0.4212 -1.30872,0.837 -1.95,1.275 l -0.6,0.45 c -0.62484,0.4368 -1.2476,0.875 -1.85,1.325 l -0.8,0.6 c -0.55368,0.4236 -1.10292,0.8608 -1.65,1.3 l -0.75,0.6 c -0.69612,0.57 -1.37032,1.1358 -2.05,1.725 l -0.225,0.175 c -0.73176,0.6444 -1.46292,1.315 -2.175,1.975 l -0.6,0.6 c -0.52452,0.5016 -1.03868,1.0066 -1.55,1.525 l -0.625,0.6 c -0.64776,0.6648 -1.27852,1.3422 -1.9,2.025 l -0.1,0.1 c -0.65712,0.7212 -1.29356,1.456 -1.925,2.2 l -0.5,0.6 c -0.47304,0.5664 -0.9434,1.1478 -1.4,1.725 l -0.5,0.625 c -0.5508,0.7092 -1.10708,1.4312 -1.625,2.15 -14.507404,19.788 -19.721444,47.0876 -8.125,69.5 z" id="signet"/><path style="fill:#ffffff;fill-opacity:1;fill-rule:nonzero;stroke:none" d="m 217.39458,486.69713 c -47.6952,0 -68.4194,-34.343 -76.325,-71.675 -7.8996,-37.6032 2.4534,-70.5712 49.875,-70.3 l 37.425,0.125 34.95,0.125 c 1.3464,0.0108 2.7318,1.0766 3.075,2.375 l 6.1,23.25 c 0.3408,1.3044 -0.5036,2.369 -1.85,2.375 l -5.825,0.025 -5.85,0.05 c -1.146,0.006 -1.7868,0.741 -1.65,1.725 l 0.15,0.55 c 0,0 13.1976,32.072 16.2,50.6 4.0884,24.8028 -8.3122,60.775 -56.275,60.775 z m 492.3,-13.725 -7.7,-0.05 c -1.3464,-0.01 -3.5524,-0.025 -4.9,-0.025 l -20.37504,0 c -1.34632,0 -3.06416,-0.915 -3.82496,-2.025 l -45.07504,-66 c -0.7608,-1.1172 -1.62376,-0.9616 -1.92496,0.35 l -3.3,14.55 c -0.2976,1.31761 -1.6536,2.375 -3,2.375 l -28.975,0 c -1.35,0 -2.141,-1.0552 -1.775,-2.35 l 12.975,-45.475 c 0.3684,-1.296 0.4086,-3.42061 0.075,-4.725 l -5.675,-22 c -0.3372,-1.3116 0.5024,-2.375 1.85,-2.375 l 28.62504,0 c 1.34392,0 2.74128,1.0634 3.07496,2.375 l 5.65,22 c 0.33368,1.30439 1.26264,3.2498 2.07504,4.325 l 73.17504,97.1 c 0.8124,1.0716 0.37128,1.95601 -0.97504,1.95 z m -248.625,-14.625 c -47.1468,0 -58.3074,-28.6184 -64.575,-57.5 -6.2676,-29.4384 -5.736,-56.95 43.05,-56.95 l 1.75,0 0.45,0 3.15,0 0.575,0 c 0.486,0 0.983,0 1.475,0 l 0.35,0 c 1.9308,0.004 3.8844,0.0178 5.85,0.025 l 0.1,0 c 12.8856,0.048 25.7894,0.15439 31.025,0.2 1.3404,0.0192 2.6502,1.092 2.925,2.4 l 1.975,9.65 0.4,1.875 2.35,11.525 c 0.2724,1.3176 -0.625,2.4 -1.975,2.4 l -43.85,0 c -17.4432,0 -22.6318,4.62281 -20.725,18.25 l 70.125,0 0.05,0 c 1.1136,0.0192 2.142,0.805 2.55,1.825 l 0.175,0.6 -0.025,0 c 10.4112,39.2652 7.4218,65.7 -37.175,65.7 z m -247.625,-0.925 c 26.31919,0.75601 31.4867,-18.81609 24.8,-41.3 l -0.675,-2.35 0,-0.025 -5.275,-18.75 -5.3,-18.75 c -0.3684,-1.2948 -1.775,-2.375 -3.125,-2.375 l -28,0 c -21.2544,0 -26.4518,16.6292 -21.275,41.15 5.1732,25.0776 15.3292,40.6708 36.25,42.25 0.89336,0.0673 1.751,0.12561 2.6,0.15 z m -106.75,-0.4 c -1.3464,0 -2.7024,-1.08959 -3,-2.4 l -2.525,-11.15 -2.524996,-11.15 c -0.3,-1.3104 0.5536,-2.4 1.899996,-2.4 l 26.85,0 c 1.35,0 2.6858,1.086 2.975,2.4 l 2.45,11.15 2.45,11.15 c 0.288,1.31761 -0.5786,2.4 -1.925,2.4 l -26.65,0 z m 194.375,-0.3 c -1.3476,0 -2.6776,-1.086 -2.95,-2.4 l -5.35,-25.4 -5.375,-25.4 0,-0.025 -0.5,-2.375 c -6.1668,-28.1568 -4.5208,-55.0112 29,-55.85 0.5484,-0.0156 0.975,0 0.975,0 l 52.6,0 c 1.3464,0 2.668,1.0788 2.95,2.4 l 11.35,53.325 11.35,53.325 c 0.2784,1.3176 -0.6024,2.4 -1.95,2.4 l -24.25,0 c -1.3464,0 -2.687,-1.086 -2.975,-2.4 l -8.6,-39.825 -8.625,-39.85 c -0.2844,-1.31401 -1.606,-2.4 -2.95,-2.4 l -17.175,0 c -16.9896,0 -15.0312,11.7532 -11.55,27.85 l 0.1,0.475 0.375,2.05 0.075,0.375 0.775,4.125 0.825,4.425 c 0.2532,1.33319 0.6504,3.2974 0.9,4.525 l 3.925,19.125 3.9,19.125 c 0.2688,1.3176 -0.6036,2.4 -1.95,2.4 l -24.9,0 z m 229.725,-0.275 c -1.3464,0 -2.6966,-1.0824 -2.975,-2.4 l -0.975,-4.675 -1.175,-5.55 -0.325,-1.55 -10.1,-47.3 -9.6,-44.925 c -0.2844,-1.3176 -0.3644,-2.94 -0.2,-3.6 0.1632,-0.6576 2.7274,-1.175 4.075,-1.175 l 20.25,0 c 1.35,0 3.0406,0.2274 3.775,0.525 0.7356,0.2976 1.83,2.9538 2.1,4.275 l 3.6,17.775 3.6,17.8 0,0.025 0.475,2.375 4.375,20.45 3.85,18.05 c 0.2844,1.3116 1.6072,2.3726 2.95,2.375 l 63.675,0.025 c 1.3428,0.006 2.1834,1.0848 1.875,2.4 l -1.1,4.6 -1.1,4.7 -0.575,2.4 c -2.1816,8.47568 -8.5742,13.35008 -22.475,13.35008 l -21.65,0.025 -19.925,0.025 -22.425,0 z m -75.975,-24.8 c 15.1188,0 18.051,-7.37099 17.025,-15.675 -0.18045,-1.44641 -1.51014,-2.525 -2.85,-2.525 l -36.725,0 c -1.2696,0 -1.9384,0.863 -1.75,1.925 l 0.025,0.075 0.025,0.125 c 0,0 0.0528,0.25899 0.15,0.625 3.5088,9.3276 10.6708,15.45 24.1,15.45 z m -356.074996,-9.325 c -1.3464,0 -2.681,-1.0848 -2.975,-2.4 l -3.775,-16.7 -3.775,-16.7 c -0.2988,-1.3152 -0.7716,-3.47879 -1.05,-4.8 l -3.625,-17.05 -3.625,-17.05 c -0.282,-1.3152 -0.8656,-3.4494 -1.3,-4.725 0,0 -5.0164,-14.918 -13.45,-14.75 -0.3564,0.0108 -0.7008,-0.007 -1.05,0 -4.08,0.0768 -7.3,0.15 -7.3,0.15 -1.3464,0.0192 -2.6892,-1.042 -3,-2.35 l -2.8,-11.7 -2.775,-11.7 c -0.3108,-1.3068 0.5358,-2.3998 1.875,-2.425 4.776,-0.0552 15.4866,-0.175 21.975,-0.175 21.0624,0 32.177996,11.6894 39.299996,45.275 l 8.325,38.55 7.825,36.15 c 0.288,1.3152 -0.6024,2.4 -1.95,2.4 l -26.849996,0 z" id="jQuery"/><path style="fill:#21ace2;fill-opacity:1;fill-rule:nonzero;stroke:none" d="m 305.7865,319.3595 c -2.1684,0 -3.9048,-0.6558 -4.5,-3.375 -0.5448,-2.7168 0.8728,-3.375 3.1,-3.375 2.1756,0 3.9064,0.7134 4.45,3.375 0.5988,2.7192 -0.8708,3.375 -3.05,3.375 z m 56.425,-0.975 -1.05,-4.725 3.5,-0.825 -3.55,-16.525 -0.975,-8.7 5,0 6.575,30.775 -9.5,0 z m 118.575,0 -2.775,-9.4 c 0,0 -3.3754,1.25 -5.875,1.25 -6.9024,0 -9.5996,-5.5558 -10.85,-11.425 -1.2528,-5.76 -0.9314,-11.45 6.025,-11.45 2.7132,0 6.725,1.725 6.725,1.725 l 0.65,-1.4 4.575,-0.075 0.6,2.9 5.925,27.875 -5,0 z m -165.9,-2.875 -2.075,-5.6 -3.65,0 -1.025,-4.75 3.475,-0.75 -1.725,-8.325 c -1.1424,-5.274 -1.214,-8.8 5.2,-8.8 1.6344,0 5.45,1.15 5.45,1.15 l 0.85,4.45 -4.175,0 c -2.0688,0 -2.0634,0.666 -1.575,3 l 1.8,8.475 6.25,0.75 1.025,4.8 -6.1,0 1.2,5.6 -4.925,0 z m 23.025,-5.35 c -9.402,0 -11.6258,-5.6864 -12.875,-11.45 -1.2492,-5.8728 -1.1534,-11.35 8.575,-11.35 3.9108,0 9.2,1.45 9.2,1.45 l 0.85,4.15 -8.725,0 c -3.48,0 -4.5352,0.9058 -4.15,3.625 l 14.4,0 c 2.2308,8.0976 1.803,13.575 -7.275,13.575 z m 46.525,0 c -9.4008,0 -11.6222,-5.6864 -12.875,-11.45 -1.2492,-5.8728 -1.1534,-11.35 8.575,-11.35 3.9108,0 9.175,1.45 9.175,1.45 l 0.875,4.15 -8.75,0 c -3.4764,0 -4.5042,0.9058 -4.125,3.625 l 14.4,0 c 2.2272,8.0976 1.797,13.575 -7.275,13.575 z m 229.175,0 c -9.402,0 -11.6472,-5.6864 -12.9,-11.45 -1.2468,-5.8728 -1.1248,-11.35 8.6,-11.35 3.912,0 9.175,1.45 9.175,1.45 l 0.875,4.15 -8.75,0 c -3.48,0 -4.5006,0.9058 -4.125,3.625 l 14.4,0 c 2.2308,8.0976 1.79576,13.575 -7.275,13.575 z m -76.9,-0.05 c -2.4996,0 -5.6,-1.625 -5.6,-1.625 l -0.725,1.35 -4.55,0 -4.725,-22.225 5.8,0 3.6,16.7 2.175,0 c 3.4152,0 2.9818,-2.386 2.275,-5.65 l -0.475,-2.45 -1,-8.6 5.075,0 2.325,11.1 c 0.4344,2.0112 0.7592,3.9164 0.65,5.6 l 2.675,0 c 3.4248,0 2.9842,-2.386 2.275,-5.65 l -0.5,-2.45 -0.975,-8.6 5.05,0 2.35,11.1 c 1.2492,5.7636 1.448,11.4 -5.5,11.4 -2.2308,0 -5.3116,-1.3548 -6.4,-1.95 -0.4884,1.0848 -1.8992,1.95 -3.8,1.95 z m -246.95,-0.05 c -2.6028,0 -5.25,-1.575 -5.25,-1.575 l -0.6,1.3 -4.625,0 -0.6,-2.825 -4.125,-19.35 5.05,0 2.65,8.55 1.75,8.15 2.725,0 c 1.794,0 2.0108,-0.6688 1.25,-4.15 l 5.7,0 c 1.1976,5.7072 1.6202,9.9 -3.925,9.9 z m 117.325,0 c -6.5784,0 -10.1502,-3.3606 -11.025,-7.275 -0.5952,-2.8776 -0.175,-5.775 -0.175,-5.775 l 11.525,-0.85 -0.25,-1.425 c -0.2208,-0.9768 -0.7168,-1.95 -4.3,-1.95 l -8.1,0 -0.925,-4.3 c 0,0 5.2622,-1.25 8.525,-1.25 6.5748,0 10.223,3.5898 10.925,7.125 0.492,2.118 0.425,5.875 0.425,5.875 l -11.725,0.85 0.225,1.1 c 0.2688,1.1976 0.654,2.325 4.35,2.325 1.7364,0 8.075,0.075 8.075,0.075 l 0.975,4.275 c 0,0 -5.2646,1.2 -8.525,1.2 z m 21.85,0 c -6.5784,0 -10.1538,-3.3606 -11.025,-7.275 -0.5952,-2.8776 -0.175,-5.775 -0.175,-5.775 l 11.525,-0.85 -0.275,-1.425 c -0.216,-0.9768 -0.6918,-1.95 -4.275,-1.95 l -8.1,0 -0.925,-4.3 c 0,0 5.2682,-1.25 8.525,-1.25 6.5784,0 10.2218,3.5898 10.925,7.125 0.492,2.118 0.425,5.875 0.425,5.875 l -11.725,0.85 0.2,1.1 c 0.2748,1.1976 0.6564,2.325 4.35,2.325 1.7388,0 8.1,0.075 8.1,0.075 l 0.975,4.275 c 0,0 -5.2646,1.2 -8.525,1.2 z m 70.1,0 c -8.9676,0 -12.121,-5.536 -13.375,-11.35 -1.194,-5.8176 -0.4676,-11.425 8.5,-11.425 8.9652,0 12.1008,5.5006 13.35,11.425 1.2528,5.814 0.435,11.35 -8.475,11.35 z m 70.275,0 c -8.9688,0 -12.1258,-5.536 -13.375,-11.35 -1.194,-5.8176 -0.4962,-11.425 8.475,-11.425 8.964,0 12.1258,5.5006 13.375,11.425 1.2504,5.814 0.4362,11.35 -8.475,11.35 z m 25.375,0 c -2.6124,0 -5.275,-1.575 -5.275,-1.575 l -0.6,1.3 -4.6,0 -0.625,-2.825 -4.125,-19.35 5.05,0 2.675,8.55 1.75,8.15 2.7,0 c 1.7904,0 2.0108,-0.6688 1.25,-4.15 l 5.7,0 c 1.194,5.7072 1.6392,9.9 -3.9,9.9 z m -350.125,-0.225 -0.925,-4.4 0.2,-17.825 8.375,0 6.35,16.2 -0.7,-16.2 8.65,0 7.825,17.825 0.925,4.4 -5.175,0 -6.525,-17.825 0.6,17.825 -8.25,0 -6.575,-17.6 1.15,17.6 -5.925,0 z m 52.65,0 -0.975,-4.725 3.475,-0.75 -1.75,-8.05 -0.975,-8.7 5,0 4.725,22.225 -9.5,0 z m 39.45,-5 c 3.3156,0 3.703,-1.6758 3.325,-3.525 l -8.375,-0.7 c 0.5928,2.7132 2.116,4.225 5.05,4.225 z m 46.525,0 c 3.3156,0 3.6994,-1.6758 3.325,-3.525 l -8.375,-0.7 c 0.5988,2.7132 2.11,4.225 5.05,4.225 z m 229.175,0 c 3.3156,0 3.6816,-1.6758 3.3,-3.525 l -8.35,-0.7 c 0.5952,2.7132 2.1172,4.225 5.05,4.225 z m -114.525,-0.25 c 4.4028,0 4.6394,-2.5054 3.875,-5.875 -0.7548,-3.5904 -2.0762,-5.925 -6.425,-5.925 -4.182,0 -4.5056,2.3922 -3.8,5.925 0.7608,3.4776 2.1152,5.875 6.35,5.875 z m 70.275,0 c 4.4028,0 4.6108,-2.5054 3.85,-5.875 -0.7572,-3.5904 -2.0524,-5.925 -6.4,-5.925 -4.1832,0 -4.5056,2.3922 -3.8,5.925 0.762,3.4776 2.1092,5.875 6.35,5.875 z m -95.7,-0.225 4.575,0 -2.5,-11.25 -4.525,0 c -3.2604,0 -3.4608,2.112 -2.7,5.7 0.7632,3.5868 1.8896,5.55 5.15,5.55 z m 154.775,-10.375 c -2.286,0 -3.98144,-0.6558 -4.52504,-3.375 -0.5952,-2.664 0.814,-3.325 3.1,-3.325 2.1204,0 3.87264,0.715 4.47504,3.325 0.54,2.7192 -0.9332,3.375 -3.05,3.375 z m -185.525,-0.125 c -2.2272,0 -3.9262,-0.6332 -4.525,-3.35 -0.3792,-1.9032 0.4518,-3.0432 2.025,-3.15 l -0.175,-3.275 4.35,0 1.375,6.425 c 0.5916,2.7168 -0.8768,3.35 -3.05,3.35 z" id="claim"/></g><metadata id="metadata3471"><rdf:RDF><cc:Work rdf:about=""><dc:title/></cc:Work></rdf:RDF></metadata></symbol><symbol id="like" viewBox="0 0 512 512">
<circle style="fill:#FF5B62;" cx="256" cy="256" r="256"/>
<path style="fill:#FFFFFF;" d="M225.137,59.203h194.584C476.103,106.163,512,176.886,512,256c0,141.385-114.615,256-256,256
	c-32.174,0-62.958-5.953-91.327-16.789V135.085V70.122c0-6.004,4.909-10.914,10.914-10.914h49.55V59.203z"/>
<g>
	<path style="fill:#ECF0F1;" d="M208.501,388.401h81.946v4.993h-81.946V388.401z M208.501,412.729h58.049v4.993h-58.049V412.729z
		 M208.501,400.563h81.946v4.993h-81.946V400.563z"/>
	<path style="fill:#ECF0F1;" d="M357.872,388.401h81.946v4.993h-81.946L357.872,388.401L357.872,388.401z M357.872,412.729h58.049
		v4.993h-58.049V412.729z M357.872,400.563h81.946v4.993h-81.946L357.872,400.563L357.872,400.563z"/>
</g>
<path style="fill:#FAD24D;" d="M345.881,286.729h105.927v84.21H345.881V286.729z"/>
<path style="fill:#21D0C3;" d="M196.51,286.729h105.927v84.21H196.51V286.729z"/>
<path style="fill:#828282;" d="M175.592,59.203h244.13c11.894,9.908,22.872,20.872,32.798,32.747H164.673V70.122
	c0-6.004,4.909-10.914,10.914-10.914L175.592,59.203z"/>
<path style="fill:#FFFFFF;" d="M366.694,70.51h65.735c3.833,3.649,7.547,7.426,11.15,11.307H366.69
	c-1.612,0-2.933-1.321-2.933-2.933v-5.441c0-1.612,1.321-2.933,2.933-2.933L366.694,70.51L366.694,70.51z"/>
<path style="fill:#21D0C3;" d="M186.446,68.561c3.473,0,6.286,2.813,6.286,6.286c0,3.473-2.813,6.286-6.286,6.286
	s-6.286-2.813-6.286-6.286S182.973,68.561,186.446,68.561z"/>
<path style="fill:#FAD24D;" d="M211.258,68.561c3.473,0,6.286,2.813,6.286,6.286c0,3.473-2.813,6.286-6.286,6.286
	c-3.473,0-6.286-2.813-6.286-6.286C204.972,71.374,207.784,68.561,211.258,68.561z"/>
<path style="fill:#FF5B62;" d="M236.07,68.561c3.473,0,6.286,2.813,6.286,6.286c0,3.473-2.813,6.286-6.286,6.286
	c-3.473,0-6.286-2.813-6.286-6.286S232.597,68.561,236.07,68.561z"/>
<path style="fill:#ECF0F1;" d="M189.235,103.955H461.96c27.994,37.86,45.796,83.702,49.366,133.491h-322.09V103.955z"/>
<path style="fill:#FED298;" d="M189.841,334.815l-94.476,3.538c-21.616-28.849-35.13-64.118-37.148-102.435l135.247,5.579
	c4.397-9.588,15.413-22.748,23.159-24.909l22.683-24.314l5.99-19.366l3.021-23.505c1.16-9.015,15.177-9.908,22.082-1.612
	c7.811,9.363,8.498,32.183,5.565,42.405l-9.773,34.114l50.424,1.206l16.775-0.794c17.939-0.854,20.609,28.669,1.169,29.592
	l-15.237,0.73l-0.429,2.429l17.524-1.561c14.91-1.33,17.598,27.024,0.638,28.535l-23.237,2.074l-0.485,2.762l17.177-1.557
	c13.722-1.243,15.098,26.567,0.573,28.23l-19.833,2.287l0.028,1.506l12.988-0.54c13.625-0.564,14.226,23.801,1.385,25.168
	c-15.603,1.668-28.604,2.716-44.604,3.856c-25.398,0.891-68.099,8.444-87.18-8.762c-1.714-1.547-3.071-3.136-4.018-4.665
	L189.841,334.815z"/>
<path style="fill:#F0B97D;" d="M189.841,334.815l-94.476,3.538c-1.288-1.723-2.55-3.464-3.779-5.229l100.102-2.735
	c2.323-0.351,3.607,1.344,4.545,2.19c10.669,24.909,103.678,9.88,123.326,10.203c6.753,0.111,13.492-3.482,13.492-3.482
	c-1.52,2.725-3.986,4.725-7.414,5.09c-15.603,1.668-28.604,2.716-44.604,3.856c-25.398,0.891-68.099,8.444-87.18-8.762
	c-1.714-1.547-3.071-3.136-4.018-4.665L189.841,334.815z"/>
<path style="fill:#FAD24D;" d="M142.896,229.017l1.325,114.841l-127.94,2.134C5.764,317.993,0,287.671,0,256
	c0-9.746,0.564-19.357,1.621-28.817L142.896,229.017z"/>
<path style="fill:#FFFFFF;" d="M163.371,232.324l1.788,107.825l-20.872,0.111l-1.783-107.829L163.371,232.324z"/>
<path style="fill:#FAD24D;" d="M132.176,333.803c0.032,3.071-2.369,5.579-5.358,5.612c-2.988,0.032-5.436-2.429-5.464-5.496
	c-0.032-3.067,2.369-5.579,5.358-5.612c2.988-0.028,5.441,2.429,5.464,5.501L132.176,333.803L132.176,333.803z"/>
<g>
	<path style="fill:#FFFFFF;" d="M258.143,152.354l-0.775,14.327c-3.039-1.141-6.161-1.737-9.455-1.141l0.937-13.044
		c0.577-8.083,9.732-8.166,9.293-0.139V152.354z"/>
	<path style="fill:#FFFFFF;" d="M260.305,111.788h3.081v13.792h-3.081V111.788z M246.637,113.285l-2.965,0.836l3.742,13.274
		l2.965-0.836l-3.742-13.27V113.285z M275.87,113.285l2.965,0.836l-3.742,13.274l-2.965-0.836l3.746-13.27L275.87,113.285z
		 M319.74,170.894l-0.241,3.071l-13.75-1.072l0.241-3.071L319.74,170.894z M318.155,155.339l0.605,3.021l-13.524,2.702l-0.605-3.025
		L318.155,155.339z M312.414,140.789l1.399,2.749l-12.281,6.268l-1.404-2.744L312.414,140.789z M302.936,128.351l2.092,2.264
		l-10.124,9.367l-2.092-2.264L302.936,128.351z M290.447,118.948l2.624,1.612l-7.201,11.759l-2.628-1.607l7.205-11.759V118.948z
		 M202.769,170.899l0.241,3.071l13.75-1.072l-0.236-3.071l-13.75,1.072H202.769z M204.348,155.344l-0.605,3.021l13.529,2.702
		l0.605-3.025L204.348,155.344z M210.094,140.794l-1.404,2.749l12.286,6.268l1.399-2.744l-12.286-6.273H210.094z M219.567,128.355
		l-2.092,2.264l10.124,9.367l2.088-2.264L219.567,128.355z M232.061,118.952l-2.628,1.612l7.201,11.759l2.628-1.607l-7.201-11.759
		V118.952z"/>
</g>
<g>
</g>
<g>
</g>
<g>
</g>
<g>
</g>
<g>
</g>
<g>
</g>
<g>
</g>
<g>
</g>
<g>
</g>
<g>
</g>
<g>
</g>
<g>
</g>
<g>
</g>
<g>
</g>
<g>
</g>
</symbol><symbol id="mongodb" viewBox="0 0 120 60"><metadata id="metadata27"><rdf:RDF><cc:Work rdf:about=""><dc:format>image/svg+xml</dc:format><dc:type rdf:resource="http://purl.org/dc/dcmitype/StillImage"/><dc:title/></cc:Work></rdf:RDF></metadata><sodipodi:namedview pagecolor="#ffffff" bordercolor="#666666" borderopacity="1" objecttolerance="10" gridtolerance="10" guidetolerance="10" inkscape:pageopacity="0" inkscape:pageshadow="2" inkscape:window-width="1920" inkscape:window-height="1001" id="namedview23" showgrid="false" inkscape:zoom="3.545098" inkscape:cx="58.032127" inkscape:cy="63.79929" inkscape:window-x="-9" inkscape:window-y="-9" inkscape:window-maximized="1" inkscape:current-layer="Layer_1"/><g id="g895" transform="translate(-1.9500178)"><g transform="matrix(1.6295974,0,0,1.6295974,-22.699855,-22.850935)" id="g862"><path style="fill:#599636;stroke-width:0.1366567" inkscape:connector-curvature="0" d="m 25.035144,17.185382 c 0.191319,0.355307 0.450967,0.9156 0.669618,1.257241 0.150322,0.232317 0.31431,0.437302 0.50563,0.628621 0.560292,0.560293 1.093253,1.147917 1.571552,1.776537 1.13425,1.489558 1.899528,3.143104 2.446155,4.933307 0.327976,1.093254 0.505629,2.213839 0.519295,3.348089 0.05466,3.389087 -1.106919,6.299874 -3.457415,8.718698 -0.382638,0.382639 -0.792608,0.737946 -1.22991,1.052256 -0.232316,0 -0.341642,-0.177653 -0.437301,-0.341641 -0.177654,-0.300645 -0.286979,-0.642287 -0.341642,-0.983929 -0.08199,-0.40997 -0.136657,-0.81994 -0.109325,-1.243575 0,-0.06833 0,-0.122992 0,-0.19132 -0.01367,-0.041 -0.218651,-18.858624 -0.136657,-18.954284 z" id="path2"/><path style="fill:#6cac48;stroke-width:0.1366567" inkscape:connector-curvature="0" d="m 25.035144,17.144385 c -0.02733,-0.05466 -0.05466,-0.01367 -0.08199,0.01366 0.01367,0.273314 -0.08199,0.519296 -0.232316,0.751612 -0.163989,0.232317 -0.382639,0.40997 -0.60129,0.60129 -1.216245,1.052256 -2.172841,2.323164 -2.938119,3.744393 -1.01126,1.913194 -1.544221,3.963045 -1.694543,6.122221 -0.06833,0.778943 0.245982,3.525742 0.491964,4.318351 0.669618,2.104513 1.872197,3.867385 3.430083,5.39794 0.382639,0.368973 0.792609,0.710615 1.216245,1.038591 0.122991,0 0.136657,-0.109326 0.163988,-0.19132 0.05466,-0.177653 0.09566,-0.355307 0.122991,-0.532961 0.122991,-0.683283 0.191319,-1.366567 0.273313,-2.04985 0,-0.08199 -0.109325,-19.145604 -0.150322,-19.213932 z" id="path8"/><path style="fill:#c2bfbf;stroke-width:0.1366567" inkscape:connector-curvature="0" d="m 25.704762,39.733737 c 0.02733,-0.31431 0.177653,-0.573958 0.341642,-0.833606 -0.163989,-0.06833 -0.28698,-0.204985 -0.382639,-0.355307 -0.08199,-0.136657 -0.150323,-0.300645 -0.204985,-0.450967 -0.19132,-0.573958 -0.232317,-1.175248 -0.286979,-1.762872 0,0 0,0 0,0 v 0 c 0,-0.05466 0,-0.122991 0,-0.177653 0,0 0,0 0,0 0,-0.05466 0,-0.122991 0,-0.177654 -0.06833,0.05466 -0.08199,0.519296 -0.08199,0.587624 -0.041,0.628621 -0.122991,1.243576 -0.245982,1.844865 -0.041,0.245982 -0.06833,0.491964 -0.218651,0.710615 0,0.02733 0,0.05466 0.01367,0.09566 0.245982,0.72428 0.31431,1.462227 0.355307,2.213838 0,0.09566 0,0.177654 0,0.273314 0,0.327976 -0.01367,0.259648 0.259648,0.368973 0.109325,0.041 0.232316,0.05466 0.341641,0.136657 0.08199,0 0.09566,-0.06833 0.09566,-0.122991 -0.01367,-0.150323 -0.041,-0.300645 -0.041,-0.450968 0,-0.423635 -0.01367,-0.833605 0,-1.257241 -0.01367,-0.218651 0.02733,-0.437302 0.05466,-0.642287 z" id="path10"/></g><g transform="matrix(1.0211238,0,0,1.0211238,-2.4262665,-1.8459459)" id="g880"><path style="fill:#47474a;stroke-width:0.1366567" inkscape:connector-curvature="0" d="m 37.730551,33.720843 c 0,0.696949 0,1.393898 0,2.077181 0,0.08199 0,0.163988 0.01367,0.245982 0.02733,0.245982 0.177654,0.396305 0.40997,0.464633 0.204985,0.05466 0.423636,0.09566 0.628621,0.122991 0.122991,0.01367 0.163988,0.06833 0.177654,0.19132 0.01367,0.464632 -0.02733,0.519295 -0.478299,0.491964 -1.052256,-0.05466 -2.104513,-0.06833 -3.15677,0 -0.041,0 -0.08199,0 -0.109325,0 -0.327976,0.01366 -0.355307,-0.01367 -0.355307,-0.341642 0,-0.05466 0.01367,-0.122991 0.01367,-0.177654 0,-0.109325 0.06833,-0.150322 0.163988,-0.150322 0.218651,-0.02733 0.423636,-0.08199 0.628621,-0.122991 0.286979,-0.06833 0.450967,-0.245982 0.478299,-0.532961 0.041,-0.314311 0.041,-0.642287 0.041,-0.956597 0.041,-1.216245 0.02733,-2.446155 0.01366,-3.6624 0,-0.232316 -0.09566,-0.40997 -0.300644,-0.519295 -0.245982,-0.136657 -0.50563,-0.245982 -0.778944,-0.327976 -0.08199,-0.02733 -0.163988,-0.041 -0.232316,-0.08199 -0.191319,-0.09566 -0.204985,-0.273314 -0.01367,-0.382639 0.06833,-0.041 0.150323,-0.06833 0.232317,-0.08199 0.833606,-0.122991 1.63988,-0.327976 2.432489,-0.614955 0.163988,-0.05466 0.204985,-0.041 0.218651,0.122991 0.01367,0.109325 0,0.218651 -0.01367,0.31431 -0.02733,0.177654 -0.02733,0.355308 -0.02733,0.519296 0,0.06833 0.01366,0.136656 0.08199,0.177653 0.06833,0.041 0.136656,0 0.191319,-0.041 0.286979,-0.21865 0.573958,-0.423635 0.888269,-0.601289 0.450967,-0.245982 0.929265,-0.464633 1.448561,-0.532961 0.62862,-0.08199 1.175247,0.08199 1.653546,0.491964 0.204985,0.177654 0.368973,0.382639 0.519295,0.601289 0.136657,0.19132 0.150323,0.204985 0.327976,0.06833 0.519296,-0.382639 1.065923,-0.724281 1.653546,-0.970263 0.614955,-0.259648 1.243576,-0.300645 1.872197,-0.08199 0.642287,0.232317 1.079588,0.683284 1.339236,1.298239 0.218651,0.491964 0.31431,1.011259 0.31431,1.530555 0,0.806274 0,1.612549 0,2.432489 0,0.40997 0,0.81994 0,1.22991 0,0.245982 0.109326,0.40997 0.341642,0.519296 0.259648,0.109325 0.546627,0.150322 0.81994,0.204985 0.177654,0.041 0.177654,0.041 0.177654,0.218651 -0.02733,0.450967 -0.06833,0.478298 -0.50563,0.450967 -1.093254,-0.06833 -2.200173,-0.05466 -3.293426,0 -0.218651,0.01366 -0.218651,0.01366 -0.232317,-0.204985 0,-0.02733 0,-0.041 0,-0.06833 -0.01367,-0.368973 -0.01367,-0.368973 0.341642,-0.450967 0.122991,-0.02733 0.232316,-0.05466 0.355307,-0.09566 0.273314,-0.08199 0.40997,-0.259648 0.423636,-0.532962 0.01367,-0.341641 0.02733,-0.683283 0.041,-1.024925 0,-0.888268 0.02733,-1.790203 -0.02733,-2.678471 -0.01367,-0.232317 -0.05466,-0.464633 -0.150323,-0.696949 -0.341641,-0.833606 -1.093253,-1.134251 -1.817534,-1.052257 -0.546626,0.05466 -1.024925,0.273313 -1.475892,0.587624 -0.09566,0.06833 -0.163988,0.150322 -0.150322,0.286979 0.122991,0.874603 0.041,1.749206 0.05466,2.623809 0.01367,0.62862 0,1.270907 0,1.899528 0,0.341641 0.136657,0.50563 0.464633,0.587624 0.204985,0.05466 0.40997,0.09566 0.628621,0.136656 0.09566,0.01367 0.150322,0.05466 0.150322,0.163988 0,0.041 0,0.08199 0,0.109326 -0.01367,0.382638 -0.041,0.40997 -0.423635,0.396304 -1.093254,-0.05466 -2.186508,-0.041 -3.266096,0 -0.368973,0.01367 -0.40997,-0.02733 -0.382638,-0.40997 0.01367,-0.218651 0.041,-0.232316 0.245982,-0.273313 0.150322,-0.02733 0.300644,-0.05466 0.450967,-0.08199 0.40997,-0.08199 0.546627,-0.232317 0.573958,-0.655953 0.01367,-0.300644 0.041,-0.614955 0.041,-0.915599 0.01367,-0.9156 0.041,-1.8312 -0.02733,-2.7468 -0.02733,-0.341642 -0.109326,-0.669618 -0.286979,-0.983928 -0.273314,-0.50563 -0.710615,-0.765278 -1.284573,-0.792609 -0.587624,-0.041 -1.10692,0.177653 -1.598884,0.450967 -0.341642,0.191319 -0.491964,0.437301 -0.464633,0.833606 0.01367,0.683283 -0.01366,1.339235 0,1.995188 -0.01366,0 0,0 0,0 z" id="path4"/><g id="g870"><path id="path6" d="m 63.476674,33.802837 c 0,0.642286 0,1.284573 0,1.926859 0,0.136657 0.01366,0.273313 0.02733,0.40997 0.02733,0.204985 0.136657,0.327976 0.327976,0.382639 0.232316,0.06833 0.478299,0.109325 0.724281,0.122991 0.136656,0.01367 0.163988,0.06833 0.177653,0.177654 0,0.02733 0,0.05466 0,0.09566 -0.01367,0.478299 -0.06833,0.532961 -0.532961,0.50563 -1.038591,-0.06833 -2.077182,-0.05466 -3.115773,0 -0.136656,0 -0.273313,0.01367 -0.40997,0.01367 -0.08199,0 -0.109325,-0.041 -0.122991,-0.09566 -0.041,-0.191319 -0.041,-0.382639 0,-0.573958 0.01367,-0.08199 0.06833,-0.109325 0.150323,-0.122991 0.191319,-0.02733 0.368973,-0.06833 0.560292,-0.109325 0.341642,-0.08199 0.464633,-0.218651 0.478299,-0.573959 0.02733,-0.382638 0.041,-0.765277 0.041,-1.147916 0,-1.120585 0,-2.24117 0,-3.361755 0,-0.245982 -0.09566,-0.396304 -0.314311,-0.505629 -0.245982,-0.136657 -0.50563,-0.232317 -0.778943,-0.327977 -0.08199,-0.02733 -0.163988,-0.05466 -0.232316,-0.09566 -0.177654,-0.122991 -0.19132,-0.300645 -0.02733,-0.437302 0.08199,-0.06833 0.163988,-0.09566 0.273314,-0.109325 0.874603,-0.136657 1.721874,-0.327976 2.541814,-0.655952 0.09566,-0.041 0.136657,-0.01367 0.177654,0.06833 0.041,0.08199 0.05466,0.177654 0.041,0.273314 -0.01367,0.21865 -0.02733,0.423635 -0.041,0.642286 0,0.08199 -0.041,0.191319 0.02733,0.232316 0.08199,0.05466 0.136657,-0.06833 0.204985,-0.109325 0.40997,-0.327976 0.847272,-0.628621 1.32557,-0.847271 0.423636,-0.19132 0.860938,-0.327977 1.352902,-0.300645 0.9156,0.05466 1.571552,0.519295 1.995188,1.32557 0.21865,0.423636 0.31431,0.888268 0.355307,1.366567 0.02733,0.327976 0.041,0.669618 0.041,1.011259 0,0.942932 0.01367,1.872197 0.01367,2.815128 0,0.06833 0,0.136657 0,0.204985 0.01367,0.232317 0.09566,0.382639 0.327976,0.464633 0.245982,0.08199 0.478298,0.136657 0.737946,0.177654 0.218651,0.02733 0.232316,0.06833 0.245982,0.273313 0,0.02733 0,0.041 0,0.06833 -0.02733,0.464632 -0.05466,0.478298 -0.519296,0.450967 -1.024925,-0.05466 -2.04985,-0.05466 -3.06111,0 -0.136656,0.01366 -0.273313,0 -0.40997,0.01366 -0.08199,0 -0.136656,-0.01366 -0.150322,-0.09566 -0.02733,-0.177654 -0.05466,-0.355308 -0.01367,-0.546627 0.01367,-0.08199 0.05466,-0.122991 0.150323,-0.136657 0.204985,-0.02733 0.423635,-0.05466 0.62862,-0.109325 0.218651,-0.05466 0.341642,-0.191319 0.368974,-0.40997 0.01367,-0.122991 0.02733,-0.259648 0.02733,-0.382639 0,-0.956597 0,-1.913194 -0.01367,-2.856125 0,-0.327976 -0.01367,-0.655952 -0.08199,-0.983928 -0.163988,-0.710615 -0.696949,-1.188914 -1.42123,-1.270908 -0.62862,-0.06833 -1.188913,0.09566 -1.721874,0.437302 -0.259648,0.163988 -0.368973,0.396304 -0.368973,0.683283 0,0.478299 0,0.956597 0,1.448561 0,0.204985 0,0.409971 0,0.614956 0,-0.041 0,-0.041 0.01367,-0.041 z" inkscape:connector-curvature="0" style="fill:#47474a;stroke-width:0.1366567"/><path id="path12" d="m 103.50342,29.935452 c -0.15032,-0.997594 -0.51929,-1.885863 -1.16158,-2.664806 -0.57396,-0.696949 -1.27091,-1.216244 -2.10451,-1.557886 -0.860941,-0.355308 -1.776541,-0.464633 -2.705807,-0.491964 -0.382638,-0.01367 -5.602924,0.06833 -5.985563,0 -0.09566,-0.01367 -0.163988,0.01366 -0.218651,0.09566 -0.06833,0.109326 -0.136657,0.204986 -0.177654,0.314311 -0.163988,0.368973 -0.163988,0.341642 0.232317,0.396304 0.327976,0.05466 0.642286,0.08199 0.956597,0.177654 0.286979,0.09566 0.491964,0.259648 0.560292,0.573958 0.02733,0.150323 0.05466,4.960638 0.05466,7.201808 0,0.532961 -0.01367,1.065923 -0.05466,1.598884 -0.01367,0.122991 -0.02733,0.245982 -0.06833,0.355307 -0.05466,0.163988 -0.150323,0.300645 -0.314311,0.368973 -0.177653,0.08199 -0.368973,0.136657 -0.573958,0.150323 -0.368973,0.041 -0.423636,0.05466 -0.546627,0.464632 -0.01366,0.05466 -0.02733,0.109326 -0.041,0.150323 -0.02733,0.177653 -0.01367,0.204985 0.163988,0.204985 0.819941,0.01367 3.402752,0.041 4.086036,0.041 0.382639,-0.01367 0.997594,0.02733 1.598883,-0.02733 0.368973,-0.041 0.737946,-0.06833 1.106919,-0.136656 1.257242,-0.232317 2.377829,-0.751612 3.334429,-1.585218 0.56028,-0.491964 0.98393,-1.065922 1.31189,-1.721874 0.38264,-0.765278 0.54663,-1.598884 0.58764,-2.446155 0.0683,-0.478299 0.041,-0.970263 -0.041,-1.462227 z m -1.98152,1.940525 c -0.0547,0.874603 -0.23232,1.721874 -0.68328,2.487152 -0.57396,0.997594 -1.393903,1.694543 -2.528154,1.940525 -0.491964,0.109326 -0.983928,0.150323 -1.489558,0.08199 -0.368973,-0.041 -0.72428,-0.08199 -1.065922,-0.204985 -0.614955,-0.218651 -0.833606,-0.601289 -0.847271,-1.188913 -0.02733,-0.860937 0,-6.887498 -0.01367,-8.240399 0,-0.491964 0.218651,-0.60129 0.573958,-0.614955 0.532961,-0.041 1.079588,-0.02733 1.612549,0.02733 0.573958,0.05466 1.120585,0.191319 1.653546,0.40997 0.396305,0.163988 0.765278,0.396305 1.079588,0.669618 0.737954,0.628621 1.229914,1.42123 1.489564,2.350495 0.21865,0.751612 0.25965,1.51689 0.21865,2.282167 z" inkscape:connector-curvature="0" style="fill:#c2bfbf;stroke-width:0.1366567"/><path id="path14" d="m 114.85959,33.215213 c 0,-0.08199 0,-0.150323 -0.0137,-0.232317 -0.12299,-0.751612 -0.5193,-1.32557 -1.13425,-1.762871 -0.39631,-0.286979 -0.84727,-0.478299 -1.31191,-0.614955 -0.082,-0.02733 -0.15032,-0.05466 -0.23231,-0.06833 0.0137,-0.06833 0.0547,-0.08199 0.0957,-0.09566 0.27331,-0.136657 0.53296,-0.286979 0.76527,-0.491964 0.42364,-0.355308 0.71062,-0.792609 0.84727,-1.32557 0.082,-0.286979 0.082,-0.573959 0.0547,-0.874603 -0.0683,-0.751612 -0.39631,-1.339236 -0.9976,-1.776537 -0.62862,-0.464633 -1.36656,-0.655953 -2.13184,-0.669618 -1.47589,-0.02733 -2.96545,0 -4.44134,0 -0.42364,0 -0.84728,0.02733 -1.28458,-0.041 -0.082,-0.01367 -0.19132,-0.041 -0.25964,0.05466 -0.10933,0.177654 -0.21866,0.355308 -0.25965,0.560293 -0.0137,0.09566 0.0137,0.150322 0.12299,0.163988 0.31431,0.041 0.62862,0.09566 0.94293,0.136657 0.36897,0.05466 0.62862,0.259647 0.65595,0.587624 0.0273,0.232316 0.041,0.450967 0.041,0.683283 0,0.847272 -0.0137,1.708209 -0.0273,2.55548 -0.0273,1.680878 -0.0137,3.375421 -0.0137,5.056298 0,0.300645 -0.041,0.587624 -0.0957,0.888269 -0.041,0.204985 -0.15032,0.341641 -0.35531,0.40997 -0.27331,0.08199 -0.53296,0.163988 -0.81994,0.163988 -0.17765,0 -0.28697,0.06833 -0.3553,0.232316 -0.0547,0.122991 -0.10933,0.259648 -0.12299,0.382639 -0.0273,0.163988 0.0137,0.218651 0.17765,0.191319 0.12299,-0.01366 4.63266,0.09566 5.47993,0.01367 0.50563,-0.05466 1.01126,-0.122991 1.50323,-0.273313 0.86093,-0.273314 1.65354,-0.669618 2.28216,-1.339236 0.5193,-0.546627 0.81994,-1.202579 0.84728,-1.967856 0.041,-0.177654 0.041,-0.355308 0.041,-0.546627 z m -6.62785,-5.589259 c 0.0273,-0.368973 0.0273,-0.724281 0.041,-1.093254 0,-0.204985 0.082,-0.300645 0.28698,-0.341642 0.32798,-0.06833 0.65595,-0.041 0.98393,-0.02733 0.32797,0.02733 0.64228,0.06833 0.97026,0.163988 0.60129,0.177654 1.06592,0.519296 1.33924,1.093254 0.12299,0.259647 0.19131,0.546626 0.19131,0.833606 0.0137,0.382638 -0.0137,0.751611 -0.16398,1.120584 -0.23232,0.50563 -0.60129,0.833606 -1.13425,0.929266 -0.53296,0.09566 -2.04985,0.05466 -2.28217,0.05466 -0.20499,0 -0.21865,-0.02733 -0.21865,-0.232317 0,-0.437301 0,-0.874603 0,-1.298238 0,0 0,0 0,0 -0.0273,-0.382639 -0.041,-0.792609 -0.0137,-1.202579 z m 4.44135,7.35213 c -0.23232,0.614955 -0.65596,1.038591 -1.25725,1.270907 -0.32797,0.122992 -0.65595,0.19132 -1.01126,0.177654 -0.42363,-0.01367 -0.84727,0 -1.2709,-0.08199 -0.57396,-0.122991 -0.83361,-0.669618 -0.87461,-1.065922 -0.0683,-0.696949 -0.0273,-1.407564 -0.041,-1.92686 0,-0.72428 0,-1.257241 0,-1.803868 0,-0.218651 0.0273,-0.286979 0.25964,-0.286979 0.42364,-0.01367 0.84728,-0.02733 1.28458,0.01367 0.30064,0.02733 0.58762,0.05466 0.8746,0.109325 0.61496,0.136657 1.17525,0.368973 1.61255,0.847272 0.35531,0.382638 0.54663,0.847271 0.58762,1.352901 0.041,0.478298 0.0137,0.942931 -0.16398,1.393898 z" inkscape:connector-curvature="0" style="fill:#c2bfbf;stroke-width:0.1366567"/><path id="path16" d="m 77.948618,30.851052 c 0.122991,0.01366 0.245982,0.041 0.355308,0.05466 0.382638,0.01366 0.833605,-0.122992 0.970262,-0.655953 0.06833,-0.259647 0.08199,-0.505629 0,-0.778943 -0.08199,0 -0.122991,0.06833 -0.163988,0.09566 -0.204985,0.163988 -0.437301,0.259648 -0.683283,0.286979 -0.491964,0.05466 -0.983929,0.02733 -1.462227,-0.150322 -0.218651,-0.08199 -0.437302,-0.163988 -0.669618,-0.232317 -0.464633,-0.150322 -0.956597,-0.218651 -1.448561,-0.191319 -0.696949,0.05466 -1.352901,0.286979 -1.967856,0.614955 -0.655953,0.355307 -1.120585,0.888268 -1.339236,1.612549 -0.122991,0.423636 -0.136657,0.860937 -0.08199,1.298239 0.136657,0.997594 0.655952,1.694543 1.585218,2.063516 0.05466,0.01367 0.09566,0.041 0.150322,0.05466 0.122991,0.06833 0.136657,0.136657 0.02733,0.232317 -0.109325,0.08199 -0.21865,0.163988 -0.341641,0.232316 -0.273314,0.163988 -0.546627,0.327976 -0.819941,0.50563 -0.204985,0.122991 -0.232316,0.218651 -0.163988,0.437301 0.08199,0.259648 0.232317,0.478299 0.437302,0.655953 0.191319,0.163988 0.396304,0.286979 0.628621,0.382638 0.150322,0.06833 0.150322,0.109326 0.01367,0.218651 -0.259647,0.19132 -0.519295,0.368973 -0.778943,0.560293 -0.259648,0.191319 -0.519295,0.40997 -0.737946,0.655952 -0.31431,0.355307 -0.423636,0.765277 -0.327976,1.22991 0.109325,0.491964 0.341642,0.888269 0.710615,1.22991 0.355307,0.327976 0.778943,0.560293 1.257241,0.683284 0.765278,0.218651 1.557887,0.232316 2.33683,0.08199 1.120585,-0.204985 2.090847,-0.710615 2.869791,-1.544221 0.532961,-0.560292 0.847271,-1.216244 0.874602,-2.008853 0.041,-0.956597 -0.546626,-1.762872 -1.475892,-1.995188 -0.245982,-0.05466 -0.491964,-0.09566 -0.737946,-0.136657 -0.751612,-0.09566 -1.503224,-0.136657 -2.254836,-0.191319 -0.245982,-0.01367 -0.491964,-0.05466 -0.696949,-0.177654 -0.259648,-0.163988 -0.327976,-0.478298 -0.163988,-0.683283 0.122991,-0.150323 0.273314,-0.245982 0.464633,-0.259648 0.150322,-0.01367 0.286979,-0.02733 0.437301,-0.041 0.888269,-0.09566 1.653546,-0.450967 2.309499,-1.052257 0.341641,-0.31431 0.573958,-0.710615 0.696949,-1.161582 0.163988,-0.587624 0.163988,-1.188913 0.02733,-1.790202 -0.041,-0.150323 -0.02733,-0.163989 0.163988,-0.136657 z m -3.348089,6.805503 c 0.08199,0.01367 0.163988,0 0.245982,0 0.573958,0.02733 1.161582,0.06833 1.721875,0.218651 0.191319,0.05466 0.355307,0.122991 0.532961,0.204985 0.546626,0.300645 0.751611,0.81994 0.683283,1.380233 -0.08199,0.614955 -0.423636,1.052257 -0.956597,1.339236 -0.355307,0.191319 -0.751612,0.286979 -1.161582,0.327976 -0.150322,0.01366 -0.286979,0 -0.437301,0 -0.478299,0.01366 -0.942931,-0.041 -1.393898,-0.232317 -0.314311,-0.122991 -0.573959,-0.300644 -0.806275,-0.546627 -0.478298,-0.478298 -0.710615,-1.352901 0.01367,-2.063516 0.437301,-0.40997 0.929265,-0.683283 1.557886,-0.628621 z m 1.557886,-4.263689 c -0.286979,0.724281 -0.915599,0.942932 -1.54422,0.847272 -0.573958,-0.08199 -0.997594,-0.396304 -1.270908,-0.9156 -0.355307,-0.696949 -0.450967,-1.42123 -0.245982,-2.172841 0.150323,-0.560293 0.491964,-0.983929 1.093254,-1.079588 0.765277,-0.136657 1.489558,0.136656 1.885862,0.901934 0.19132,0.368973 0.286979,0.81994 0.286979,1.462227 -0.01367,0.259647 -0.06833,0.614955 -0.204985,0.956596 z" inkscape:connector-curvature="0" style="fill:#47474a;stroke-width:0.1366567"/><path id="path18" d="m 58.939671,32.463601 c -0.122991,-0.737946 -0.396304,-1.407564 -0.901934,-1.967857 -0.751612,-0.833605 -1.708209,-1.188913 -2.787797,-1.202579 -0.942931,-0.01366 -1.831199,0.259648 -2.623808,0.751612 -0.792609,0.491964 -1.339236,1.188914 -1.598884,2.090848 -0.232316,0.792609 -0.21865,1.598883 -0.041,2.405158 0.478299,2.159176 2.14551,3.088441 4.140698,2.951784 0.587624,-0.041 1.147917,-0.232316 1.680878,-0.491964 0.792609,-0.368973 1.366567,-0.956597 1.762871,-1.73554 0.314311,-0.642286 0.450967,-1.32557 0.437302,-2.104513 -0.01367,-0.191319 -0.02733,-0.450967 -0.06833,-0.696949 z m -1.940525,3.033779 c -0.245982,0.655952 -0.710615,1.052256 -1.407564,1.147916 C 54.990293,36.72729 54.43,36.576968 53.92437,36.22166 53.555397,35.948347 53.268418,35.606705 53.063433,35.196735 52.503141,34.048819 52.407481,32.84624 52.69446,31.616329 c 0.09566,-0.382638 0.286979,-0.72428 0.573958,-0.997594 0.50563,-0.464632 1.093254,-0.573958 1.749206,-0.437301 0.628621,0.136657 1.106919,0.478298 1.489558,0.997594 0.382639,0.519295 0.573958,1.120585 0.683283,1.749206 0.05466,0.31431 0.05466,0.642286 0.06833,0.847271 0,0.655952 -0.05466,1.188913 -0.259648,1.721875 z" inkscape:connector-curvature="0" style="fill:#47474a;stroke-width:0.1366567"/><path id="path20" d="m 88.79916,32.572926 c -0.109325,-0.792609 -0.396304,-1.516889 -0.956597,-2.118179 -0.737946,-0.806274 -1.694543,-1.147916 -2.760465,-1.161582 -0.9156,-0.01366 -1.762872,0.245983 -2.541815,0.69695 -0.874603,0.519295 -1.475892,1.257241 -1.708208,2.254835 -0.273314,1.120585 -0.163988,2.213839 0.327976,3.25243 0.450967,0.956597 1.216244,1.571552 2.227504,1.844865 1.120585,0.300645 2.186507,0.163988 3.225098,-0.341642 0.901934,-0.437301 1.544221,-1.120585 1.913194,-2.04985 0.21865,-0.546627 0.300644,-1.134251 0.31431,-1.817534 0.01367,-0.122991 -0.01367,-0.341642 -0.041,-0.560293 z m -1.885862,2.7468 c -0.218651,0.737946 -0.683284,1.216245 -1.462227,1.32557 -0.573958,0.08199 -1.120585,-0.05466 -1.612549,-0.382639 -0.423636,-0.286979 -0.724281,-0.669618 -0.942931,-1.120585 -0.245982,-0.478298 -0.382639,-0.983928 -0.437302,-1.503223 -0.08199,-0.642287 -0.08199,-1.270908 0.06833,-1.913194 0.02733,-0.122991 0.06833,-0.245982 0.122991,-0.368973 0.382638,-0.956597 1.22991,-1.393899 2.227504,-1.175248 0.669618,0.150322 1.175247,0.519295 1.557886,1.079588 0.368973,0.546627 0.546627,1.147916 0.628621,1.790203 0.041,0.259647 0.05466,0.532961 0.041,0.765277 0,0.532961 -0.041,1.024925 -0.191319,1.503224 z" inkscape:connector-curvature="0" style="fill:#47474a;stroke-width:0.1366567"/></g></g></g></symbol><symbol id="nodejs" viewBox="0 0 133.5 36.9">
<g>
	<g>
		<g>
			<g>
				<path fill="#353128" d="M128,23.5c-0.1-0.7-0.7-1.1-1-1.4c-0.4-0.2-0.9-0.3-1.5-0.3c-1.3,0-2.5,0.4-2.5,1.1
					c0,0.5,0.3,0.8,1.3,0.9l2.6,0.2c1.1,0.1,1.7,0.4,2.3,0.7c0.8,0.4,1.2,1.3,1.2,2.2c0,1.1-0.5,1.9-1.4,2.4
					c-0.8,0.4-1.8,0.6-3.3,0.6c-1.8,0-3.1-0.4-3.9-1.1c-0.6-0.6-0.8-1.2-0.9-2.4h1.7c0.1,0.6,0.2,0.9,0.6,1.2
					c0.5,0.4,1.7,0.6,2.6,0.6c1.4,0,2.5-0.4,2.5-1.2c0-0.6-0.7-0.9-1.7-1l-2.5-0.3c-1.9-0.2-3-1.1-3-2.6c0-1.9,1.7-3.1,4.4-3.1
					c1.4,0,2.6,0.3,3.4,0.9c1,0.7,1,1.8,1,2.5H128z"/>
			</g>
			<path fill="#353128" d="M132.5,18l-8.8-5.1c-0.6-0.3-1.3-0.4-1.9,0l-8.8,5.1c-0.6,0.3-1,1-1,1.7l0,10.2c0,0.7,0.4,1.3,1,1.7
				l8.8,5.1c0.6,0.3,1.3,0.4,1.9,0l8.8-5.1c0.6-0.3,1-1,1-1.7l0-10.2C133.5,19,133.1,18.4,132.5,18z M131.8,30.1l-9.1,5.2l-4.2-2.5
				c0.7-0.4,1.1-1.2,1.2-2h0V20.1h-1.8v8.2c0,0,0,0,0,0c0,0.1,0,0.2,0,0.3v1.4c0,0,0,0.1,0,0.2c0,0.8-0.6,1.4-1.4,1.4
				c-0.2,0-0.4,0-0.5-0.1c0,0-0.1,0-0.1,0l-2.3-1.3l0-10.5l9.1-5.2l9.1,5.3L131.8,30.1z"/>
		</g>
	</g>
	<g>
		<path fill="#8CC644" d="M28.1,29.9l0-10c0-0.7,0.4-1.3,1-1.6l8.7-5c0.6-0.3,1.3-0.3,1.9,0l8.6,5c0.6,0.3,0.9,1,0.9,1.7l0,10
			c0,0.7-0.4,1.3-1,1.6l-8.7,5c-0.6,0.3-1.3,0.3-1.9,0l-8.6-5C28.5,31.2,28.1,30.6,28.1,29.9z"/>
		<path fill="#8CC644" d="M93,26l0-1.9c0-0.1,0.1-0.3,0.2-0.3l1.7-1c0.1-0.1,0.3-0.1,0.4,0l1.7,1c0.1,0.1,0.2,0.2,0.2,0.3l0,1.9
			c0,0.1-0.1,0.3-0.2,0.3l-1.7,1c-0.1,0.1-0.3,0.1-0.4,0l-1.7-1C93.1,26.2,93,26.1,93,26z"/>
		<g>
			<path fill="#353128" d="M76.6,3.1l-5.5-3c-0.3-0.2-0.7,0.1-0.7,0.4v14.1c0,0.2-0.3,0.4-0.5,0.4l-0.3-0.1l-1.7-1
				c-0.6-0.3-1.3-0.3-1.9,0l-8.5,4.9c-0.6,0.3-0.9,0.9-0.9,1.6l0,9.8c0,0.7,0.4,1.3,0.9,1.6l8.4,4.9c0.6,0.3,1.3,0.3,1.9,0l8.5-4.9
				c0.6-0.3,0.9-0.9,0.9-1.6l0-7.7h0V4.2C77.3,3.7,77,3.3,76.6,3.1z M70.4,27.2l-3.5,2l-3.4-2l0-4l3.5-2l3.4,2L70.4,27.2z"/>
		</g>
		<path fill="#353128" d="M0,33.9V19.7c0-0.3,0.2-0.6,0.5-0.8l9.7-5.4c0.3-0.1,0.6-0.1,0.9,0l9.5,5.4c0.3,0.2,0.5,0.5,0.5,0.8v14.2
			c0,0.3-0.3,0.5-0.6,0.4L14.6,31c-0.3-0.1-0.4-0.4-0.4-0.7v-6.5c0-0.3-0.2-0.6-0.4-0.8L11,21.4c-0.2-0.1-0.5-0.1-0.8,0l-2.7,1.6
			c-0.3,0.2-0.4,0.5-0.4,0.8v6.4c0,0.3-0.2,0.6-0.4,0.7l-6,3.2C0.3,34.4,0,34.2,0,33.9z"/>
		<path fill="#353128" d="M85.1,18.9l9.4-5.3c0.3-0.2,0.7-0.2,1.1,0l9.5,5.3c0.3,0.2,0.5,0.5,0.5,0.9v2.6c0,0.4-0.2,0.8-0.6,0.9
			l-6,3.3c-0.3,0.1-0.5-0.1-0.5-0.3v-2.7c0-0.3-0.1-0.5-0.4-0.7l-2.7-1.6c-0.3-0.2-0.6-0.2-0.8,0l-2.7,1.6c-0.2,0.1-0.4,0.4-0.4,0.7
			v3c0,0.3,0.2,0.6,0.4,0.7l9.4,5.5c0.2,0.1,0.2,0.5,0,0.6l-5.9,3.3c-0.3,0.1-0.6,0.1-0.8,0l-9.5-5.3c-0.3-0.2-0.6-0.6-0.6-0.9V19.8
			C84.5,19.4,84.7,19,85.1,18.9z"/>
	</g>
</g>
</symbol><symbol id="npm" viewBox="0 0 18 7">
<path fill="#CB3837" d="M0,0h18v6H9v1H5V6H0V0z M1,5h2V2h1v3h1V1H1V5z M6,1v5h2V5h2V1H6z M8,2h1v2H8V2z M11,1v4h2V2h1v3h1V2h1v3h1V1H11z"/>
<polygon fill="#FFFFFF" points="1,5 3,5 3,2 4,2 4,5 5,5 5,1 1,1 "/>
<path fill="#FFFFFF" d="M6,1v5h2V5h2V1H6z M9,4H8V2h1V4z"/>
<polygon fill="#FFFFFF" points="11,1 11,5 13,5 13,2 14,2 14,5 15,5 15,2 16,2 16,5 17,5 17,1 "/>
</symbol><symbol id="php" viewBox="0 -1 100 50">
	<path d="m7.579 10.123 14.204 0c4.169 0.035 7.19 1.237 9.063 3.604 1.873 2.367 2.491 5.6 1.855 9.699-0.247 1.873-0.795 3.71-1.643 5.512-0.813 1.802-1.943 3.427-3.392 4.876-1.767 1.837-3.657 3.003-5.671 3.498-2.014 0.495-4.099 0.742-6.254 0.742l-6.36 0-2.014 10.07-7.367 0 7.579-38.001 0 0m6.201 6.042-3.18 15.9c0.212 0.035 0.424 0.053 0.636 0.053 0.247 0 0.495 0 0.742 0 3.392 0.035 6.219-0.3 8.48-1.007 2.261-0.742 3.781-3.321 4.558-7.738 0.636-3.71 0-5.848-1.908-6.413-1.873-0.565-4.222-0.83-7.049-0.795-0.424 0.035-0.83 0.053-1.219 0.053-0.353 0-0.724 0-1.113 0l0.053-0.053"/>
	<path d="m41.093 0 7.314 0-2.067 10.123 6.572 0c3.604 0.071 6.289 0.813 8.056 2.226 1.802 1.413 2.332 4.099 1.59 8.056l-3.551 17.649-7.42 0 3.392-16.854c0.353-1.767 0.247-3.021-0.318-3.763-0.565-0.742-1.784-1.113-3.657-1.113l-5.883-0.053-4.346 21.783-7.314 0 7.632-38.054 0 0"/>
	<path d="m70.412 10.123 14.204 0c4.169 0.035 7.19 1.237 9.063 3.604 1.873 2.367 2.491 5.6 1.855 9.699-0.247 1.873-0.795 3.71-1.643 5.512-0.813 1.802-1.943 3.427-3.392 4.876-1.767 1.837-3.657 3.003-5.671 3.498-2.014 0.495-4.099 0.742-6.254 0.742l-6.36 0-2.014 10.07-7.367 0 7.579-38.001 0 0m6.201 6.042-3.18 15.9c0.212 0.035 0.424 0.053 0.636 0.053 0.247 0 0.495 0 0.742 0 3.392 0.035 6.219-0.3 8.48-1.007 2.261-0.742 3.781-3.321 4.558-7.738 0.636-3.71 0-5.848-1.908-6.413-1.873-0.565-4.222-0.83-7.049-0.795-0.424 0.035-0.83 0.053-1.219 0.053-0.353 0-0.724 0-1.113 0l0.053-0.053"/>
</symbol><symbol id="pug" viewBox="0 0 256 256" preserveAspectRatio="xMidYMid"><circle fill="#F2F2F2" cx="128" cy="128" r="128"/><path d="M166.493 203.683a113.227 113.227 0 0 1-78.29 0c-2.327-.838-4.188-3.584-4.188-5.958v-6.097c0-2.374 1.861-3.538 4.189-2.7a113.227 113.227 0 0 0 78.29 0c2.326-.838 4.188.326 4.188 2.7v6.097c-.046 2.374-1.908 5.12-4.189 5.958z" fill="#ED1C24"/><path d="M166.493 196.236c-25.274 12.94-53.015 12.94-78.29 0-2.327-1.164-4.188-4.98-4.188-8.285v-8.425c0-3.305 1.861-4.934 4.189-3.724 25.274 12.94 53.015 12.94 78.29 0 2.326-1.163 4.188.42 4.188 3.724v8.425c-.046 3.304-1.908 7.121-4.189 8.285z" fill="#C1272D"/><g transform="translate(117.76 202.938)"><ellipse fill="#C1272D" cx="9.588" cy="3.91" rx="3.584" ry="3.584"/><ellipse fill="#FF931E" cx="9.588" cy="3.398" rx="3.072" ry="3.072"/><ellipse fill="#FFB81E" cx="10.473" cy="4.468" rx="1.071" ry="1.071"/><ellipse fill="#FF931E" cx="9.588" cy="15.546" rx="9.588" ry="9.588"/><circle fill="#FFB81E" cx="9.588" cy="15.639" r="8.611"/><path d="M12.102 12.893c.512.466.791 1.117.791 2.048s-.28 1.583-.791 2.048c-.559.419-1.35.652-2.467.652h-.978v2.094H6.982v-7.494h2.653c1.117 0 1.955.187 2.467.652zm-1.21 2.932c.186-.232.279-.558.279-.977 0-.419-.14-.745-.372-.93-.28-.187-.652-.28-1.21-.28h-.932v2.513h1.118c.558 0 .93-.093 1.117-.326z" fill="#FF931E"/></g><path d="M205.033 140.474c2.327 31.884-32.163 60.51-77.22 60.463-45.009.046-79.545-28.58-77.218-60.463 2.327-31.977 37.004-58.368 77.312-58.414 40.355.046 74.752 26.437 77.126 58.414z" fill="#F7BD89"/><path d="M127.674 77.591c-42.356 0-81.687 29.836-74.24 75.264 1.49 4.19 3.957 15.081 15.733 24.716 3.537 2.886 9.634 5.306 12.52 3.351 7.401-5.027-5.725-19.456 9.263-32.768h-.326c8.145-6.19 19.689-11.124 36.957-11.124s28.812 4.934 36.957 11.124h-.326c14.988 13.312 1.909 27.741 9.263 32.768 2.886 1.955 9.03-.465 12.52-3.351 11.777-9.635 14.29-20.527 15.78-24.716 7.447-45.475-31.744-75.264-74.1-75.264z" fill="#FBD5A0"/><path d="M164.12 153.041c-7.122-8.75-20.62-17.221-36.306-17.221h-.186c-15.733 0-29.23 8.47-36.306 17.221-7.354 8.937-4.7 12.754-4.7 21.318 0 31 10.844 21.97 18.152 25.693 7.447 3.63 14.987 2.328 22.9 2.328h.14c7.913 0 15.453 1.303 22.9-2.374 7.261-3.724 18.153 5.4 18.153-25.6-.047-8.518 2.606-12.428-4.748-21.365z"/><g transform="translate(62.37 123.81)"><circle fill="#F7BD89" cx="13.033" cy="15.453" r="12.986"/><circle cx="14.196" cy="13.265" r="12.986"/><circle fill="#FFF" cx="17.501" cy="7.447" r="3.351"/></g><g transform="translate(165.702 123.81)"><circle fill="#F7BD89" cx="13.964" cy="15.453" r="12.986"/><circle cx="13.219" cy="13.265" r="12.986"/><circle fill="#FFF" cx="16.524" cy="7.447" r="3.351"/></g><path d="M100.352 89.228s-43.985 7.587-45.754 60.136c-.047.792-.885 1.304-1.583.885l-1.396-.838-1.07-13.778 2-28.113 18.34-13.545 16.477-6.656 12.986 1.909zM154.95 89.228s43.985 7.587 45.754 60.136c.047.792.884 1.304 1.583.885l1.396-.838 1.07-13.778-2.001-28.113-18.339-13.545-16.477-6.656-12.986 1.909z" fill="#F7BD89"/><path d="M126.753 182.81V156.3h1.936v26.447c2.853.335 6.56 1.993 10.11 3.062 3.677 1.304 7.214 1.816 5.818 2.002-4.841.186-10.147-1.63-16.664-1.536-6.562-.093-11.869 1.722-16.663 1.536-1.396-.233 2.141-.745 5.818-2.002 3.366-1.013 6.837-2.557 9.645-3zm13.116-35.447c1.536 3.398-3.77 8.937-12.195 8.937s-13.73-5.54-12.195-8.937c1.49-3.491 6.842-4.608 12.195-4.655 5.353.047 10.706 1.164 12.195 4.655z" fill="#4D4D4D"/><path d="M100.352 89.228s-51.805 7.168-47.337 58.6c.233 2.607-10.333-11.124-18.525-15.313-8.192-4.19-7.913-17.734-7.913-17.734s-.14-23.598 32.955-30.58c33.047-6.936 40.82 5.027 40.82 5.027zm54.598 0s51.805 7.168 47.337 58.6c-.233 2.607 10.333-11.124 18.525-15.313 8.192-4.19 7.912-17.734 7.912-17.734s.14-23.598-32.954-30.58c-33.047-6.936-40.82 5.027-40.82 5.027z"/><path d="M127.72 126.278c-16.104 0-32.395 15.825-28.997 14.057 6.284-3.305 9.914-9.123 28.998-9.123 19.083 0 22.667 5.818 28.998 9.123 3.397 1.768-12.894-14.057-28.998-14.057z" fill="#F7BD89"/><path d="M127.72 119.343c-12.24 0-24.575 12.008-22.015 10.658 4.794-2.513 10.938-6.935 22.016-6.935 11.078 0 17.222 4.422 22.016 6.935 2.56 1.35-9.775-10.658-22.016-10.658zM127.628 80.384c-13.499 0-27.183 7.727-24.344 6.842 5.307-1.629 12.102-4.468 24.344-4.468 12.241 0 19.037 2.84 24.343 4.468 2.84.885-10.799-6.842-24.343-6.842z" fill="#F7BD89"/><path d="M130.746 145.501c.373.838-.93 2.188-3.025 2.188-2.095 0-3.398-1.35-3.026-2.188.373-.838 1.676-1.117 3.026-1.164 1.303 0 2.653.28 3.025 1.164z" fill="gray"/></symbol><symbol id="sass" viewBox="0 0 512 384"><path fill="#CF649A" d="M440.6 220.6c-17.9.1-33.4 4.4-46.4 10.8-4.8-9.5-9.6-17.8-10.4-24-.9-7.2-2-11.6-.9-20.2s6.1-20.8 6.1-21.8c-.1-.9-1.1-5.3-11.4-5.4-10.3-.1-19.2 2-20.2 4.7s-3 8.9-4.3 15.3c-1.8 9.4-20.6 42.7-31.3 60.2-3.5-6.8-6.5-12.8-7.1-17.6-.9-7.2-2-11.6-.9-20.2s6.1-20.8 6.1-21.8c-.1-.9-1.1-5.3-11.4-5.4-10.3-.1-19.2 2-20.2 4.7s-2.1 9.1-4.3 15.3c-2.1 6.2-27.1 61.8-33.6 76.3-3.3 7.4-6.2 13.3-8.3 17.3s-.1.3-.3.7c-1.8 3.4-2.8 5.3-2.8 5.3v.1c-1.4 2.5-2.9 4.9-3.6 4.9-.5 0-1.5-6.7.2-15.9 3.7-19.3 12.7-49.4 12.6-50.5 0-.5 1.7-5.8-5.8-8.5-7.3-2.7-9.9 1.8-10.5 1.8-.6 0-1.1 1.6-1.1 1.6s8.1-33.9-15.5-33.9c-14.8 0-35.2 16.1-45.3 30.8-6.4 3.5-20 10.9-34.4 18.8-5.5 3-11.2 6.2-16.6 9.1l-1.1-1.2c-28.6-30.5-81.5-52.1-79.3-93.1.8-14.9 6-54.2 101.6-101.8 78.3-39 141-28.3 151.9-4.5 15.5 34-33.5 97.2-114.9 106.3-31 3.5-47.3-8.5-51.4-13-4.3-4.7-4.9-4.9-6.5-4-2.6 1.4-1 5.6 0 8.1 2.4 6.3 12.4 17.5 29.4 23.1 14.9 4.9 51.3 7.6 95.3-9.4 49.3-19.1 87.8-72.1 76.5-116.4-11.5-45.1-86.3-59.9-157-34.8-42.1 15-87.7 38.4-120.5 69.1-39 36.4-45.2 68.2-42.6 81.4 9.1 47.1 74 77.8 100 100.5-1.3.7-2.5 1.4-3.6 2-13 6.4-62.5 32.3-74.9 59.7-14 31 2.2 53.3 13 56.3 33.4 9.3 67.6-7.4 86.1-34.9 18.4-27.5 16.2-63.2 7.7-79.5l-.3-.6 10.2-6c6.6-3.9 13.1-7.5 18.8-10.6-3.2 8.7-5.5 19-6.7 34-1.4 17.6 5.8 40.4 15.3 49.4 4.2 3.9 9.2 4 12.3 4 11 0 16-9.1 21.5-20 6.8-13.3 12.8-28.7 12.8-28.7s-7.5 41.7 13 41.7c7.5 0 15-9.7 18.4-14.7v.1s.2-.3.6-1c.8-1.2 1.2-1.9 1.2-1.9v-.2c3-5.2 9.7-17.1 19.7-36.8 12.9-25.4 25.3-57.2 25.3-57.2s1.2 7.8 4.9 20.6c2.2 7.6 7 15.9 10.7 24-3 4.2-4.8 6.6-4.8 6.6l.1.1c-2.4 3.2-5.1 6.6-7.9 10-10.2 12.2-22.4 26.1-24 30.1-1.9 4.7-1.5 8.2 2.2 11 2.7 2 7.5 2.4 12.6 2 9.2-.6 15.6-2.9 18.8-4.3 5-1.8 10.7-4.5 16.2-8.5 10-7.4 16.1-17.9 15.5-31.9-.3-7.7-2.8-15.3-5.9-22.5.9-1.3 1.8-2.6 2.7-4 15.8-23.1 28-48.5 28-48.5s1.2 7.8 4.9 20.6c1.9 6.5 5.7 13.6 9.1 20.6-14.8 12.1-24.1 26.1-27.3 35.3-5.9 17-1.3 24.7 7.4 26.5 3.9.8 9.5-1 13.7-2.8 5.2-1.7 11.5-4.6 17.3-8.9 10-7.4 19.6-17.7 19.1-31.6-.3-6.4-2-12.7-4.3-18.7 12.6-5.2 28.9-8.2 49.6-5.7 44.5 5.2 53.3 33 51.6 44.6-1.7 11.6-11 18-14.1 20-3.1 1.9-4.1 2.6-3.8 4 .4 2.1 1.8 2 4.5 1.6 3.7-.6 23.4-9.5 24.2-30.9 1.2-27.5-24.9-57.5-71.2-57.2zm-343.2 115.7c-14.7 16.1-35.4 22.2-44.2 17-9.5-5.5-5.8-29.2 12.3-46.3 11-10.4 25.3-20 34.7-25.9 2.1-1.3 5.3-3.2 9.1-5.5.6-.4 1-.6 1-.6.7-.4 1.5-.9 2.3-1.4 6.7 24.4.3 45.8-15.2 62.7zm107.5-73.1c-5.1 12.5-15.9 44.6-22.4 42.8-5.6-1.5-9-25.8-1.1-49.8 4-12.1 12.5-26.5 17.5-32.1 8.1-9 16.9-12 19.1-8.3 2.6 4.8-9.9 39.6-13.1 47.4zm88.7 42.4c-2.2 1.1-4.2 1.9-5.1 1.3-.7-.4.9-1.9.9-1.9s11.1-11.9 15.5-17.4c2.5-3.2 5.5-6.9 8.7-11.1v1.2c0 14.4-13.8 24-20 27.9zm68.4-15.6c-1.6-1.2-1.4-4.9 4-16.5 2.1-4.6 6.9-12.3 15.2-19.6 1 3 1.6 5.9 1.5 8.6-.1 18-12.9 24.7-20.7 27.5z"/></symbol><symbol id="vue" viewBox="0 0 261.76 226.69"><g transform="matrix(1.3333 0 0 -1.3333 -76.311 313.34)"><g transform="translate(178.06 235.01)"><path d="m0 0-22.669-39.264-22.669 39.264h-75.491l98.16-170.02 98.16 170.02z" fill="#41b883"/></g><g transform="translate(178.06 235.01)"><path d="m0 0-22.669-39.264-22.669 39.264h-36.227l58.896-102.01 58.896 102.01z" fill="#34495e"/></g></g></symbol></svg>