<?xml version="1.0" encoding="UTF-8" standalone="no"?>
<!DOCTYPE svg PUBLIC "-//W3C//DTD SVG 1.1//EN" "http://www.w3.org/Graphics/SVG/1.1/DTD/svg11.dtd">
<svg version="1.1" xmlns="http://www.w3.org/2000/svg" xmlns:xlink="http://www.w3.org/1999/xlink" preserveAspectRatio="xMidYMid meet" viewBox="0 0 640 740" width="640" height="740"><defs><path d="M640 0L581.7 665.92L319.61 740L58.24 666.03L0 0L640 0Z" id="aaSzfe5lo"></path><path d="M640 0L581.7 665.92L319.61 740L58.24 666.03L0 0L640 0Z" id="c3cNfdsyhD"></path><path d="M581.07 53.64L319.46 53.64L319.46 682.56L531.24 622.7L581.07 53.64Z" id="a1Mf99kVwx"></path><path d="M581.07 53.64L319.46 53.64L319.46 682.56L531.24 622.7L581.07 53.64Z" id="a1YWsyTFCX"></path><path d="M229.76 488.39L224.05 423.25L180.7 423.25L143.63 423.25L154.85 551.5L318.97 597.95L319.34 597.84L319.34 512.85L318.99 512.96L229.76 488.39Z" id="aY48dz90A"></path><path d="M229.76 488.39L224.05 423.25L180.7 423.25L143.63 423.25L154.85 551.5L318.97 597.95L319.34 597.84L319.34 512.85L318.99 512.96L229.76 488.39Z" id="cItHQ9Qb8"></path><path d="M231.47 300.67L243.04 172.48L330.35 170.11L330.13 85.16L170.6 85.16L164.68 145.38L145.85 360.43L143.89 382.36L165.48 382.36L330.13 382.36L330.13 300.67L231.47 300.67Z" id="a9vR5NMgY"></path><path d="M231.47 300.67L243.04 172.48L330.35 170.11L330.13 85.16L170.6 85.16L164.68 145.38L145.85 360.43L143.89 382.36L165.48 382.36L330.13 382.36L330.13 300.67L231.47 300.67Z" id="b1c4mn5smM"></path><path d="M417.45 175.48L424.87 259.83L468.23 259.83L505.3 259.83L491.29 102L329.96 85.12L329.59 85.23L329.59 170.22L329.94 170.12L417.45 175.48Z" id="aYBODXbQb"></path><path d="M417.45 175.48L424.87 259.83L468.23 259.83L505.3 259.83L491.29 102L329.96 85.12L329.59 85.23L329.59 170.22L329.94 170.12L417.45 175.48Z" id="eePwPq880"></path><path d="M497.04 170.47L490.18 85.16L321.05 85.16L321.05 138.14L321.05 170.26L321.05 170.47L497.04 170.47" id="a1ohUjaEzO"></path><path d="M497.04 170.47L490.18 85.16L321.05 85.16L321.05 138.14L321.05 170.26L321.05 170.47L497.04 170.47" id="i2y0rh2ZhN"></path><path d="M417.72 382.4L408.42 488.33L319.06 512.92L319.06 597.91L483.32 551.5L484.52 537.7L503.35 322.65L505.3 300.72L483.71 300.72L319.06 300.72L319.06 382.4L417.72 382.4Z" id="dGqbpXo2O"></path><path d="M417.72 382.4L408.42 488.33L319.06 512.92L319.06 597.91L483.32 551.5L484.52 537.7L503.35 322.65L505.3 300.72L483.71 300.72L319.06 300.72L319.06 382.4L417.72 382.4Z" id="d9hBAfRPm"></path></defs><g><g><g><use xlink:href="#aaSzfe5lo" opacity="1" fill="#efc725" fill-opacity="1"></use><g><use xlink:href="#aaSzfe5lo" opacity="1" fill-opacity="0" stroke="#000000" stroke-width="1" stroke-opacity="0"></use></g></g><g><use xlink:href="#c3cNfdsyhD" opacity="1" fill="#000000" fill-opacity="0"></use><g><use xlink:href="#c3cNfdsyhD" opacity="1" fill-opacity="0" stroke="#000000" stroke-width="1" stroke-opacity="0"></use></g></g><g><use xlink:href="#a1Mf99kVwx" opacity="1" fill="#fbde34" fill-opacity="1"></use><g><use xlink:href="#a1Mf99kVwx" opacity="1" fill-opacity="0" stroke="#000000" stroke-width="1" stroke-opacity="0"></use></g></g><g><use xlink:href="#a1YWsyTFCX" opacity="1" fill="#000000" fill-opacity="0"></use><g><use xlink:href="#a1YWsyTFCX" opacity="1" fill-opacity="0" stroke="#000000" stroke-width="1" stroke-opacity="0"></use></g></g><g><use xlink:href="#aY48dz90A" opacity="1" fill="#ebebeb" fill-opacity="1"></use><g><use xlink:href="#aY48dz90A" opacity="1" fill-opacity="0" stroke="#000000" stroke-width="1" stroke-opacity="0"></use></g></g><g><use xlink:href="#cItHQ9Qb8" opacity="1" fill="#000000" fill-opacity="0"></use><g><use xlink:href="#cItHQ9Qb8" opacity="1" fill-opacity="0" stroke="#000000" stroke-width="1" stroke-opacity="0"></use></g></g><g><use xlink:href="#a9vR5NMgY" opacity="1" fill="#ebebeb" fill-opacity="1"></use><g><use xlink:href="#a9vR5NMgY" opacity="1" fill-opacity="0" stroke="#000000" stroke-width="1" stroke-opacity="0"></use></g></g><g><use xlink:href="#b1c4mn5smM" opacity="1" fill="#000000" fill-opacity="0"></use><g><use xlink:href="#b1c4mn5smM" opacity="1" fill-opacity="0" stroke="#000000" stroke-width="1" stroke-opacity="0"></use></g></g><g><use xlink:href="#aYBODXbQb" opacity="1" fill="#ffffff" fill-opacity="1"></use><g><use xlink:href="#aYBODXbQb" opacity="1" fill-opacity="0" stroke="#000000" stroke-width="1" stroke-opacity="0"></use></g></g><g><use xlink:href="#eePwPq880" opacity="1" fill="#000000" fill-opacity="0"></use><g><use xlink:href="#eePwPq880" opacity="1" fill-opacity="0" stroke="#000000" stroke-width="1" stroke-opacity="0"></use></g></g><g><use xlink:href="#a1ohUjaEzO" opacity="1" fill="#ffffff" fill-opacity="1"></use><g><use xlink:href="#a1ohUjaEzO" opacity="1" fill-opacity="0" stroke="#000000" stroke-width="1" stroke-opacity="0"></use></g></g><g><use xlink:href="#i2y0rh2ZhN" opacity="1" fill="#000000" fill-opacity="0"></use><g><use xlink:href="#i2y0rh2ZhN" opacity="1" fill-opacity="0" stroke="#000000" stroke-width="1" stroke-opacity="0"></use></g></g><g><use xlink:href="#dGqbpXo2O" opacity="1" fill="#ffffff" fill-opacity="1"></use><g><use xlink:href="#dGqbpXo2O" opacity="1" fill-opacity="0" stroke="#000000" stroke-width="1" stroke-opacity="0"></use></g></g><g><use xlink:href="#d9hBAfRPm" opacity="1" fill="#000000" fill-opacity="0"></use><g><use xlink:href="#d9hBAfRPm" opacity="1" fill-opacity="0" stroke="#000000" stroke-width="1" stroke-opacity="0"></use></g></g></g></g></svg>